<?xml version="1.0" standalone="no"?><svg xmlns:xlink="http://www.w3.org/1999/xlink" xmlns="http://www.w3.org/2000/svg" viewBox="0 0 1000 562.5013573874454" preserveAspectRatio="xMaxYMax slice"><g transform="scale(0.7239399708976132)"><rect x="0" y="0" width="1381.3333333333333" height="777" fill="#ffffff"/><rect x="0" y="0" width="86.33" height="86.33" fill="#92e9c9"/><rect x="0" y="0" width="86.33" height="86.33" fill="#c3f3e2"/><rect x="86.33333333333333" y="0" width="86.33333333333333" height="86.33333333333333" fill="#ffffff"/><rect x="86.33" y="0" width="43.17" height="43.17" fill="#fdfefd"/><path d="M 86.33 43.17 A 43.17 43.17 0 0 0 129.5 0 L 86.33 0" fill="#6cac96"/><rect x="129.5" y="0" width="43.17" height="43.17" fill="#338b6d"/><path d="M 129.5 0 A 43.17 43.17 0 0 0 172.67000000000002 43.17 L 172.67000000000002 0" fill="#abcfc3"/><rect x="86.33" y="43.17" width="43.17" height="43.17" fill="#3b9073"/><path d="M 86.33 43.17 A 43.17 43.17 0 0 1 129.5 86.34 L 86.33 86.34" fill="#2ed498"/><rect x="129.5" y="43.17" width="43.17" height="43.17" fill="#f5fdfa"/><path d="M 129.5 86.34 A 43.17 43.17 0 0 1  172.67000000000002 43.17 L 172.67000000000002 86.34" fill="#bdf1df"/><rect x="172.67" y="0" width="86.33" height="86.33" fill="#d8f7ec"/><polygon points="172.67,0 259,0 259,86.33" fill="#30896b"/><rect x="259" y="0" width="86.33" height="86.33" fill="#d7e8e2"/><polygon points="345.33,0 345.33,86.33 259,86.33" fill="#3b9073"/><rect x="345.33" y="0" width="86.33" height="86.33" fill="#b4d4c9"/><path d="M 345.33 0 A 86.33 86.33 0 0 1  431.65999999999997 86.33 L 345.33 0 A 86.33 86.33 0 0 0 431.65999999999997 86.33" fill="#d0f5e8"/><rect x="431.67" y="0" width="86.33" height="86.33" fill="#6ee1b8"/><path d="M 431.67 86.33 A 86.33 86.33 0 0 1  518 0 L 518 86.33" fill="#3dd7a0"/><rect x="518" y="0" width="86.33333333333333" height="86.33333333333333" fill="#ffffff"/><rect x="518" y="0" width="43.17" height="43.17" fill="#dfede8"/><path d="M 518 0 A 43.17 43.17 0 0 0 561.17 43.17 L 561.17 0" fill="#def8ef"/><rect x="561.17" y="0" width="43.17" height="43.17" fill="#aeeed7"/><path d="M 561.17 43.17 A 43.17 43.17 0 0 0 604.3399999999999 0 L 561.17 0" fill="#9eebd0"/><rect x="518" y="43.17" width="43.17" height="43.17" fill="#c4ded5"/><path d="M 518 86.34 A 43.17 43.17 0 0 1  561.17 43.17 L 561.17 86.34" fill="#93c2b2"/><rect x="561.17" y="43.17" width="43.17" height="43.17" fill="#4adaa6"/><path d="M 561.17 43.17 A 43.17 43.17 0 0 1 604.3399999999999 86.34 L 561.17 86.34" fill="#80e5c1"/><rect x="604.33" y="0" width="86.33" height="86.33" fill="#86baa9"/><path d="M 604.33 0 A 86.33 86.33 0 0 1  690.6600000000001 86.33 L 604.33 0 A 86.33 86.33 0 0 0 690.6600000000001 86.33" fill="#348b6e"/><rect x="690.67" y="0" width="86.33" height="86.33" fill="#45967b"/><rect x="690.67" y="0" width="86.33" height="86.33" fill="#68e0b5"/><rect x="777" y="0" width="86.33" height="86.33" fill="#edf5f2"/><path d="M 777 86.33 A 86.33 86.33 0 0 1  863.33 0 L 863.33 86.33" fill="#d1e5de"/><rect x="863.33" y="0" width="86.33" height="86.33" fill="#c8f4e4"/><path d="M 863.33 86.33 A 86.33 86.33 0 0 1  949.6600000000001 0 L 949.6600000000001 86.33" fill="#c1f2e1"/><rect x="949.67" y="0" width="86.33" height="86.33" fill="#78e3bd"/><rect x="949.67" y="0" width="86.33" height="86.33" fill="#d0e5de"/><rect x="1036" y="0" width="86.33" height="86.33" fill="#e2f9f1"/><rect x="1036" y="0" width="86.33" height="86.33" fill="#08724f"/><rect x="1122.33" y="0" width="86.33" height="86.33" fill="#fbfdfc"/><polygon points="1122.33,0 1208.6599999999999,0 1208.6599999999999,86.33" fill="#29d396"/><rect x="1208.6666666666665" y="0" width="86.33333333333333" height="86.33333333333333" fill="#ffffff"/><rect x="1208.67" y="0" width="43.17" height="43.17" fill="#a5edd3"/><path d="M 1208.67 0 A 43.17 43.17 0 0 1 1251.8400000000001 43.17 L 1208.67 43.17" fill="#c0f2e0"/><rect x="1251.83" y="0" width="43.17" height="43.17" fill="#47967c"/><path d="M 1251.83 43.17 A 43.17 43.17 0 0 1  1295 0 L 1295 43.17" fill="#75b19d"/><rect x="1208.67" y="43.17" width="43.17" height="43.17" fill="#f9fefc"/><path d="M 1208.67 86.34 A 43.17 43.17 0 0 0 1251.8400000000001 43.17 L 1208.67 43.17" fill="#effcf7"/><rect x="1251.83" y="43.17" width="43.17" height="43.17" fill="#d0e4dd"/><path d="M 1251.83 43.17 A 43.17 43.17 0 0 0 1295 86.34 L 1295 43.17" fill="#278465"/><rect x="1295" y="0" width="86.33" height="86.33" fill="#63dfb3"/><path d="M 1295 86.33 A 86.33 86.33 0 0 0 1381.33 0 L 1295 0" fill="#278465"/><rect x="0" y="86.33333333333333" width="86.33333333333333" height="86.33333333333333" fill="#ffffff"/><rect x="0" y="86.33" width="43.17" height="43.17" fill="#a5ccbf"/><polygon points="43.17,86.33 43.17,129.5 0,129.5" fill="#d5f6ea"/><rect x="43.17" y="86.33" width="43.17" height="43.17" fill="#3b9073"/><polygon points="43.17,86.33 86.34,129.5 43.17,129.5" fill="#d8f7ec"/><rect x="0" y="129.5" width="43.17" height="43.17" fill="#177b5a"/><polygon points="0,129.5 43.17,129.5 43.17,172.67000000000002" fill="#8dbeae"/><rect x="43.17" y="129.5" width="43.17" height="43.17" fill="#add0c5"/><polygon points="43.17,129.5 86.34,129.5 43.17,172.67000000000002" fill="#cbf4e5"/><rect x="86.33333333333333" y="86.33333333333333" width="86.33333333333333" height="86.33333333333333" fill="#ffffff"/><rect x="86.33" y="86.33" width="43.17" height="43.17" fill="#7ab3a0"/><polygon points="129.5,86.33 129.5,129.5 86.33,129.5" fill="#6ead98"/><rect x="129.5" y="86.33" width="43.17" height="43.17" fill="#b5f0da"/><polygon points="129.5,86.33 172.67000000000002,86.33 129.5,129.5" fill="#6aaa95"/><rect x="86.33" y="129.5" width="43.17" height="43.17" fill="#3ed7a0"/><polygon points="86.33,129.5 129.5,129.5 129.5,172.67000000000002" fill="#d6f6eb"/><rect x="129.5" y="129.5" width="43.17" height="43.17" fill="#b4f0da"/><polygon points="129.5,129.5 172.67000000000002,172.67000000000002 129.5,172.67000000000002" fill="#b6d5cb"/><rect x="172.67" y="86.33" width="86.33" height="86.33" fill="#cae1da"/><path d="M 172.67 172.66 A 86.33 86.33 0 0 1  259 86.33 L 259 172.66" fill="#abcfc3"/><rect x="259" y="86.33" width="86.33" height="86.33" fill="#aed1c5"/><polygon points="345.33,86.33 345.33,172.66 259,172.66" fill="#d6e8e2"/><rect x="345.33" y="86.33" width="86.33" height="86.33" fill="#87e6c4"/><rect x="345.33" y="86.33" width="86.33" height="86.33" fill="#409377"/><rect x="431.67" y="86.33" width="86.33" height="86.33" fill="#a6edd3"/><polygon points="431.67,86.33 518,172.66 431.67,172.66" fill="#86e6c4"/><rect x="518" y="86.33" width="86.33" height="86.33" fill="#69aa94"/><path d="M 518 86.33 A 86.33 86.33 0 0 0 604.33 172.66 L 604.33 86.33" fill="#e7f1ee"/><rect x="604.3333333333333" y="86.33333333333333" width="86.33333333333333" height="86.33333333333333" fill="#ffffff"/><rect x="604.33" y="86.33" width="43.17" height="43.17" fill="#75b09c"/><path d="M 604.33 86.33 A 43.17 43.17 0 0 0 647.5 129.5 L 647.5 86.33" fill="#348b6e"/><rect x="647.5" y="86.33" width="43.17" height="43.17" fill="#8ee8c8"/><path d="M 647.5 129.5 A 43.17 43.17 0 0 0 690.67 86.33 L 647.5 86.33" fill="#4c997f"/><rect x="604.33" y="129.5" width="43.17" height="43.17" fill="#ebfbf5"/><path d="M 604.33 172.67000000000002 A 43.17 43.17 0 0 1  647.5 129.5 L 647.5 172.67000000000002" fill="#cee3dc"/><rect x="647.5" y="129.5" width="43.17" height="43.17" fill="#fafcfb"/><path d="M 647.5 129.5 A 43.17 43.17 0 0 1 690.67 172.67000000000002 L 647.5 172.67000000000002" fill="#bbd9cf"/><rect x="690.67" y="86.33" width="86.33" height="86.33" fill="#c3ddd4"/><rect x="690.67" y="86.33" width="86.33" height="86.33" fill="#3c9074"/><rect x="777" y="86.33333333333333" width="86.33333333333333" height="86.33333333333333" fill="#ffffff"/><rect x="777" y="86.33" width="43.17" height="43.17" fill="#6fe1b9"/><polygon points="820.17,86.33 820.17,129.5 777,129.5" fill="#6ead98"/><rect x="820.17" y="86.33" width="43.17" height="43.17" fill="#60a58e"/><polygon points="820.17,86.33 863.3399999999999,129.5 820.17,129.5" fill="#137957"/><rect x="777" y="129.5" width="43.17" height="43.17" fill="#036f4b"/><polygon points="777,129.5 820.17,129.5 820.17,172.67000000000002" fill="#5ddeb0"/><rect x="820.17" y="129.5" width="43.17" height="43.17" fill="#5ea38c"/><polygon points="820.17,129.5 863.3399999999999,129.5 820.17,172.67000000000002" fill="#89e7c5"/><rect x="863.33" y="86.33" width="86.33" height="86.33" fill="#52dbaa"/><polygon points="949.6600000000001,86.33 949.6600000000001,172.66 863.33,172.66" fill="#ebf4f1"/><rect x="949.67" y="86.33" width="86.33" height="86.33" fill="#a0ecd0"/><rect x="949.67" y="86.33" width="86.33" height="86.33" fill="#d6e8e2"/><rect x="1036" y="86.33" width="86.33" height="86.33" fill="#83e6c2"/><rect x="1036" y="86.33" width="86.33" height="86.33" fill="#b2d3c8"/><rect x="1122.3333333333333" y="86.33333333333333" width="86.33333333333333" height="86.33333333333333" fill="#ffffff"/><rect x="1122.33" y="86.33" width="43.17" height="43.17" fill="#70ae99"/><circle cx="1143.915" cy="107.91499999999999" r="21.585" fill="#65a791"/><rect x="1165.5" y="86.33" width="43.17" height="43.17" fill="#def8ef"/><rect x="1165.5" y="86.33" width="43.17" height="43.17" fill="#46d9a4"/><rect x="1122.33" y="129.5" width="43.17" height="43.17" fill="#8ce7c6"/><circle cx="1143.915" cy="151.085" r="21.585" fill="#b1efd9"/><rect x="1165.5" y="129.5" width="43.17" height="43.17" fill="#c8f4e4"/><rect x="1165.5" y="129.5" width="43.17" height="43.17" fill="#d9e9e4"/><rect x="1208.67" y="86.33" width="86.33" height="86.33" fill="#e2efea"/><rect x="1208.67" y="86.33" width="86.33" height="86.33" fill="#96e9cb"/><rect x="1295" y="86.33" width="86.33" height="86.33" fill="#398f72"/><polygon points="1295,86.33 1381.33,86.33 1381.33,172.66" fill="#b8f0dc"/><rect x="0" y="172.67" width="86.33" height="86.33" fill="#fdfffe"/><path d="M 0 172.67 A 86.33 86.33 0 0 1  86.33 259 L 0 172.67 A 86.33 86.33 0 0 0 86.33 259" fill="#81b8a5"/><rect x="86.33333333333333" y="172.66666666666666" width="86.33333333333333" height="86.33333333333333" fill="#ffffff"/><rect x="86.33" y="172.67" width="43.17" height="43.17" fill="#91e8c9"/><path d="M 86.33 215.83999999999997 A 43.17 43.17 0 0 1  129.5 172.67 L 129.5 215.83999999999997" fill="#e9f3ef"/><rect x="129.5" y="172.67" width="43.17" height="43.17" fill="#d8f7ec"/><path d="M 129.5 172.67 A 43.17 43.17 0 0 1 172.67000000000002 215.83999999999997 L 129.5 215.83999999999997" fill="#f0f6f4"/><rect x="86.33" y="215.83" width="43.17" height="43.17" fill="#54dcab"/><path d="M 86.33 215.83 A 43.17 43.17 0 0 0 129.5 259 L 129.5 215.83" fill="#e0ede9"/><rect x="129.5" y="215.83" width="43.17" height="43.17" fill="#b3efda"/><path d="M 129.5 259 A 43.17 43.17 0 0 0 172.67000000000002 215.83 L 129.5 215.83" fill="#ebf4f1"/><rect x="172.67" y="172.67" width="86.33" height="86.33" fill="#268464"/><polygon points="172.67,172.67 259,259 172.67,259" fill="#93e9ca"/><rect x="259" y="172.67" width="86.33" height="86.33" fill="#9debcf"/><polygon points="259,172.67 345.33,172.67 259,259" fill="#46d9a4"/><rect x="345.33" y="172.67" width="86.33" height="86.33" fill="#93c2b2"/><rect x="345.33" y="172.67" width="86.33" height="86.33" fill="#278465"/><rect x="431.67" y="172.67" width="86.33" height="86.33" fill="#90e8c8"/><rect x="431.67" y="172.67" width="86.33" height="86.33" fill="#40d8a1"/><rect x="518" y="172.67" width="86.33" height="86.33" fill="#b4f0da"/><path d="M 518 259 A 86.33 86.33 0 0 1  604.33 172.67 L 604.33 259" fill="#b5f0db"/><rect x="604.3333333333333" y="172.66666666666666" width="86.33333333333333" height="86.33333333333333" fill="#ffffff"/><rect x="604.33" y="172.67" width="43.17" height="43.17" fill="#d3e6df"/><path d="M 604.33 215.83999999999997 A 43.17 43.17 0 0 1  647.5 172.67 L 647.5 215.83999999999997" fill="#86e6c4"/><rect x="647.5" y="172.67" width="43.17" height="43.17" fill="#6aaa95"/><path d="M 647.5 172.67 A 43.17 43.17 0 0 1 690.67 215.83999999999997 L 647.5 215.83999999999997" fill="#82b8a6"/><rect x="604.33" y="215.83" width="43.17" height="43.17" fill="#eef5f3"/><path d="M 604.33 215.83 A 43.17 43.17 0 0 0 647.5 259 L 647.5 215.83" fill="#a7edd4"/><rect x="647.5" y="215.83" width="43.17" height="43.17" fill="#bbd8cf"/><path d="M 647.5 259 A 43.17 43.17 0 0 0 690.67 215.83 L 647.5 215.83" fill="#93c2b2"/><rect x="690.67" y="172.67" width="86.33" height="86.33" fill="#ecf4f1"/><path d="M 690.67 259 A 86.33 86.33 0 0 0 777 172.67 L 690.67 172.67" fill="#c1f2e1"/><rect x="777" y="172.66666666666666" width="86.33333333333333" height="86.33333333333333" fill="#ffffff"/><rect x="777" y="172.67" width="43.17" height="43.17" fill="#c7f3e3"/><path d="M 777 215.83999999999997 A 43.17 43.17 0 0 1 820.17 172.67 L 820.17 183.46249999999998 A 32.3775 32.3775 0 0 0 787.7925 215.83999999999997" fill="#36d69c"/><rect x="820.17" y="172.67" width="43.17" height="43.17" fill="#52dbaa"/><path d="M 820.17 172.67 A 43.17 43.17 0 0 1 863.3399999999999 215.83999999999997 L 852.5474999999999 215.83999999999997 A 32.3775 32.3775 0 0 0 820.17 183.46249999999998" fill="#aed1c5"/><rect x="777" y="215.83" width="43.17" height="43.17" fill="#7eb6a3"/><path d="M 777 215.83 A 43.17 43.17 0 0 0 820.17 259 L 820.17 248.2075 A 32.3775 32.3775 0 0 1 787.7925 215.83" fill="#f3fdf9"/><rect x="820.17" y="215.83" width="43.17" height="43.17" fill="#78e3bd"/><path d="M 820.17 259 A 43.17 43.17 0 0 0 863.3399999999999 215.83 L 852.5474999999999 215.83 A 32.3775 32.3775 0 0 1 820.17 248.2075" fill="#45d9a4"/><rect x="863.33" y="172.67" width="86.33" height="86.33" fill="#60deb1"/><path d="M 863.33 172.67 A 86.33 86.33 0 0 0 949.6600000000001 259 L 949.6600000000001 172.67" fill="#238262"/><rect x="949.67" y="172.67" width="86.33" height="86.33" fill="#8dbead"/><polygon points="949.67,172.67 1036,259 949.67,259" fill="#68e0b5"/><rect x="1036" y="172.66666666666666" width="86.33333333333333" height="86.33333333333333" fill="#ffffff"/><rect x="1036" y="172.67" width="43.17" height="43.17" fill="#07724e"/><polygon points="1079.17,172.67 1079.17,215.83999999999997 1036,215.83999999999997" fill="#aaeed5"/><rect x="1079.17" y="172.67" width="43.17" height="43.17" fill="#99c5b6"/><polygon points="1079.17,172.67 1122.3400000000001,215.83999999999997 1079.17,215.83999999999997" fill="#569f87"/><rect x="1036" y="215.83" width="43.17" height="43.17" fill="#c4f3e2"/><polygon points="1036,215.83 1079.17,215.83 1036,259" fill="#c6f3e3"/><rect x="1079.17" y="215.83" width="43.17" height="43.17" fill="#66a892"/><polygon points="1079.17,215.83 1122.3400000000001,215.83 1122.3400000000001,259" fill="#add0c4"/><rect x="1122.33" y="172.67" width="86.33" height="86.33" fill="#5ca28b"/><polygon points="1122.33,172.67 1208.6599999999999,172.67 1122.33,259" fill="#a5ecd3"/><rect x="1208.67" y="172.67" width="86.33" height="86.33" fill="#59a189"/><rect x="1208.67" y="172.67" width="86.33" height="86.33" fill="#348c6e"/><rect x="1295" y="172.67" width="86.33" height="86.33" fill="#55dcac"/><path d="M 1295 172.67 A 86.33 86.33 0 0 1 1381.33 259 L 1295 259" fill="#a4ecd2"/><rect x="0" y="259" width="86.33" height="86.33" fill="#8cbdad"/><polygon points="0,259 86.33,345.33 0,345.33" fill="#daeae5"/><rect x="86.33" y="259" width="86.33" height="86.33" fill="#44957a"/><polygon points="172.66,259 172.66,345.33 86.33,345.33" fill="#69aa94"/><rect x="172.67" y="259" width="86.33" height="86.33" fill="#0a7450"/><polygon points="172.67,259 259,259 172.67,345.33" fill="#9cc7b8"/><rect x="259" y="259" width="86.33" height="86.33" fill="#8de7c7"/><polygon points="259,259 345.33,259 259,345.33" fill="#8be7c6"/><rect x="345.3333333333333" y="259" width="86.33333333333333" height="86.33333333333333" fill="#ffffff"/><rect x="345.33" y="259" width="43.17" height="43.17" fill="#eafbf5"/><polygon points="388.5,259 388.5,302.17 345.33,302.17" fill="#c6dfd6"/><rect x="388.5" y="259" width="43.17" height="43.17" fill="#c9e0d8"/><polygon points="388.5,259 431.67,302.17 388.5,302.17" fill="#7ae4be"/><rect x="345.33" y="302.17" width="43.17" height="43.17" fill="#e2f9f1"/><polygon points="345.33,302.17 388.5,302.17 388.5,345.34000000000003" fill="#a4ecd2"/><rect x="388.5" y="302.17" width="43.17" height="43.17" fill="#3f9276"/><polygon points="388.5,302.17 431.67,302.17 388.5,345.34000000000003" fill="#3d9174"/><rect x="431.67" y="259" width="86.33" height="86.33" fill="#92c1b1"/><rect x="431.67" y="259" width="86.33" height="86.33" fill="#7ee4c0"/><rect x="518" y="259" width="86.33" height="86.33" fill="#b4d4c9"/><path d="M 518 345.33 A 86.33 86.33 0 0 1  604.33 259 L 604.33 345.33" fill="#f8fbfa"/><rect x="604.33" y="259" width="86.33" height="86.33" fill="#f5f9f8"/><rect x="604.33" y="259" width="86.33" height="86.33" fill="#9ac6b7"/><rect x="690.67" y="259" width="86.33" height="86.33" fill="#c1f2e1"/><rect x="690.67" y="259" width="86.33" height="86.33" fill="#f7fdfb"/><rect x="777" y="259" width="86.33" height="86.33" fill="#f0f6f4"/><rect x="777" y="259" width="86.33" height="86.33" fill="#d4f6ea"/><rect x="863.33" y="259" width="86.33" height="86.33" fill="#0f7754"/><rect x="863.33" y="259" width="86.33" height="86.33" fill="#bfdbd1"/><rect x="949.67" y="259" width="86.33" height="86.33" fill="#aed1c5"/><polygon points="1036,259 1036,345.33 949.67,345.33" fill="#34d59b"/><rect x="1036" y="259" width="86.33333333333333" height="86.33333333333333" fill="#ffffff"/><rect x="1036" y="259" width="43.17" height="43.17" fill="#a2ecd1"/><path d="M 1036 259 A 43.17 43.17 0 0 1 1079.17 302.17 L 1036 302.17" fill="#68e0b5"/><rect x="1079.17" y="259" width="43.17" height="43.17" fill="#9bc6b7"/><path d="M 1079.17 302.17 A 43.17 43.17 0 0 1  1122.3400000000001 259 L 1122.3400000000001 302.17" fill="#37d69d"/><rect x="1036" y="302.17" width="43.17" height="43.17" fill="#92c1b1"/><path d="M 1036 345.34000000000003 A 43.17 43.17 0 0 0 1079.17 302.17 L 1036 302.17" fill="#bdf1df"/><rect x="1079.17" y="302.17" width="43.17" height="43.17" fill="#e1f9f0"/><path d="M 1079.17 302.17 A 43.17 43.17 0 0 0 1122.3400000000001 345.34000000000003 L 1122.3400000000001 302.17" fill="#b5d5ca"/><rect x="1122.33" y="259" width="86.33" height="86.33" fill="#fefefe"/><path d="M 1122.33 259 A 86.33 86.33 0 0 0 1208.6599999999999 345.33 L 1208.6599999999999 259" fill="#8dbeae"/><rect x="1208.67" y="259" width="86.33" height="86.33" fill="#68a993"/><path d="M 1208.67 259 A 86.33 86.33 0 0 1  1295 345.33 L 1208.67 259 A 86.33 86.33 0 0 0 1295 345.33" fill="#99c5b6"/><rect x="1295" y="259" width="86.33" height="86.33" fill="#b6f0db"/><rect x="1295" y="259" width="86.33" height="86.33" fill="#98eacc"/><rect x="0" y="345.3333333333333" width="86.33333333333333" height="86.33333333333333" fill="#ffffff"/><rect x="0" y="345.33" width="43.17" height="43.17" fill="#95c3b4"/><path d="M 0 345.33 A 43.17 43.17 0 0 0 43.17 388.5 L 43.17 345.33" fill="#ebfbf5"/><rect x="43.17" y="345.33" width="43.17" height="43.17" fill="#3ed7a0"/><path d="M 43.17 388.5 A 43.17 43.17 0 0 0 86.34 345.33 L 43.17 345.33" fill="#5edeb0"/><rect x="0" y="388.5" width="43.17" height="43.17" fill="#2fd499"/><path d="M 0 431.67 A 43.17 43.17 0 0 1  43.17 388.5 L 43.17 431.67" fill="#268464"/><rect x="43.17" y="388.5" width="43.17" height="43.17" fill="#daeae5"/><path d="M 43.17 388.5 A 43.17 43.17 0 0 1 86.34 431.67 L 43.17 431.67" fill="#69e0b5"/><rect x="86.33" y="345.33" width="86.33" height="86.33" fill="#6aab95"/><rect x="86.33" y="345.33" width="86.33" height="86.33" fill="#bad8ce"/><rect x="172.67" y="345.33" width="86.33" height="86.33" fill="#b9d7cd"/><polygon points="259,345.33 259,431.65999999999997 172.67,431.65999999999997" fill="#a8edd4"/><rect x="259" y="345.33" width="86.33" height="86.33" fill="#0f7754"/><rect x="259" y="345.33" width="86.33" height="86.33" fill="#9aeacd"/><rect x="345.3333333333333" y="345.3333333333333" width="86.33333333333333" height="86.33333333333333" fill="#ffffff"/><rect x="345.33" y="345.33" width="43.17" height="43.17" fill="#e8f2ef"/><circle cx="366.91499999999996" cy="366.91499999999996" r="21.585" fill="#03704b"/><rect x="388.5" y="345.33" width="43.17" height="43.17" fill="#57dcac"/><rect x="388.5" y="345.33" width="43.17" height="43.17" fill="#a3cbbe"/><rect x="345.33" y="388.5" width="43.17" height="43.17" fill="#e3f9f1"/><circle cx="366.91499999999996" cy="410.085" r="21.585" fill="#9dc7b9"/><rect x="388.5" y="388.5" width="43.17" height="43.17" fill="#d6e8e2"/><rect x="388.5" y="388.5" width="43.17" height="43.17" fill="#8cbdad"/><rect x="431.67" y="345.33" width="86.33" height="86.33" fill="#eaf3f0"/><rect x="431.67" y="345.33" width="86.33" height="86.33" fill="#cdf5e7"/><rect x="518" y="345.33" width="86.33" height="86.33" fill="#50dba9"/><polygon points="518,345.33 604.33,345.33 604.33,431.65999999999997" fill="#80e5c1"/><rect x="604.3333333333333" y="345.3333333333333" width="86.33333333333333" height="86.33333333333333" fill="#ffffff"/><rect x="604.33" y="345.33" width="43.17" height="43.17" fill="#eafbf5"/><polygon points="647.5,345.33 647.5,388.5 604.33,388.5" fill="#bad8ce"/><rect x="647.5" y="345.33" width="43.17" height="43.17" fill="#abeed6"/><polygon points="647.5,345.33 690.67,345.33 647.5,388.5" fill="#a9cec2"/><rect x="604.33" y="388.5" width="43.17" height="43.17" fill="#94c2b2"/><polygon points="604.33,388.5 647.5,388.5 647.5,431.67" fill="#65dfb3"/><rect x="647.5" y="388.5" width="43.17" height="43.17" fill="#88bbaa"/><polygon points="647.5,388.5 690.67,431.67 647.5,431.67" fill="#c8e0d8"/><rect x="690.6666666666666" y="345.3333333333333" width="86.33333333333333" height="86.33333333333333" fill="#ffffff"/><rect x="690.67" y="345.33" width="43.17" height="43.17" fill="#89bcab"/><path d="M 690.67 388.5 A 43.17 43.17 0 0 1 733.8399999999999 345.33 L 733.8399999999999 356.1225 A 32.3775 32.3775 0 0 0 701.4625 388.5" fill="#bdf1de"/><rect x="733.83" y="345.33" width="43.17" height="43.17" fill="#e9fbf4"/><path d="M 733.83 345.33 A 43.17 43.17 0 0 1 777 388.5 L 766.2075 388.5 A 32.3775 32.3775 0 0 0 733.83 356.1225" fill="#46d9a4"/><rect x="690.67" y="388.5" width="43.17" height="43.17" fill="#6ee1b8"/><path d="M 690.67 388.5 A 43.17 43.17 0 0 0 733.8399999999999 431.67 L 733.8399999999999 420.8775 A 32.3775 32.3775 0 0 1 701.4625 388.5" fill="#2e886a"/><rect x="733.83" y="388.5" width="43.17" height="43.17" fill="#b9d7cd"/><path d="M 733.83 431.67 A 43.17 43.17 0 0 0 777 388.5 L 766.2075 388.5 A 32.3775 32.3775 0 0 1 733.83 420.8775" fill="#e9faf4"/><rect x="777" y="345.33" width="86.33" height="86.33" fill="#b4d5ca"/><polygon points="777,345.33 863.33,431.65999999999997 777,431.65999999999997" fill="#77b29e"/><rect x="863.33" y="345.33" width="86.33" height="86.33" fill="#e8faf4"/><polygon points="863.33,345.33 949.6600000000001,431.65999999999997 863.33,431.65999999999997" fill="#97c4b4"/><rect x="949.6666666666666" y="345.3333333333333" width="86.33333333333333" height="86.33333333333333" fill="#ffffff"/><rect x="949.67" y="345.33" width="43.17" height="43.17" fill="#0c7552"/><path d="M 949.67 388.5 A 43.17 43.17 0 0 1 992.8399999999999 345.33 L 992.8399999999999 356.1225 A 32.3775 32.3775 0 0 0 960.4625 388.5" fill="#e0ede9"/><rect x="992.83" y="345.33" width="43.17" height="43.17" fill="#559f86"/><path d="M 992.83 345.33 A 43.17 43.17 0 0 1 1036 388.5 L 1025.2075 388.5 A 32.3775 32.3775 0 0 0 992.83 356.1225" fill="#cff5e8"/><rect x="949.67" y="388.5" width="43.17" height="43.17" fill="#b9f1dd"/><path d="M 949.67 388.5 A 43.17 43.17 0 0 0 992.8399999999999 431.67 L 992.8399999999999 420.8775 A 32.3775 32.3775 0 0 1 960.4625 388.5" fill="#549e85"/><rect x="992.83" y="388.5" width="43.17" height="43.17" fill="#cee3dc"/><path d="M 992.83 431.67 A 43.17 43.17 0 0 0 1036 388.5 L 1025.2075 388.5 A 32.3775 32.3775 0 0 1 992.83 420.8775" fill="#0f7754"/><rect x="1036" y="345.33" width="86.33" height="86.33" fill="#6bab96"/><path d="M 1036 431.65999999999997 A 86.33 86.33 0 0 1  1122.33 345.33 L 1036 431.65999999999997 A 86.33 86.33 0 0 0 1122.33 345.33" fill="#5fdeb1"/><rect x="1122.33" y="345.33" width="86.33" height="86.33" fill="#8de7c7"/><rect x="1122.33" y="345.33" width="86.33" height="86.33" fill="#bbf1de"/><rect x="1208.67" y="345.33" width="86.33" height="86.33" fill="#f3fdf9"/><path d="M 1208.67 345.33 A 86.33 86.33 0 0 1 1295 431.65999999999997 L 1208.67 431.65999999999997" fill="#f6faf8"/><rect x="1295" y="345.33" width="86.33" height="86.33" fill="#78e3bd"/><rect x="1295" y="345.33" width="86.33" height="86.33" fill="#47d9a5"/><rect x="0" y="431.67" width="86.33" height="86.33" fill="#dfede8"/><rect x="0" y="431.67" width="86.33" height="86.33" fill="#70e2b9"/><rect x="86.33" y="431.67" width="86.33" height="86.33" fill="#ebf4f1"/><rect x="86.33" y="431.67" width="86.33" height="86.33" fill="#feffff"/><rect x="172.67" y="431.67" width="86.33" height="86.33" fill="#abcfc3"/><rect x="172.67" y="431.67" width="86.33" height="86.33" fill="#298667"/><rect x="259" y="431.66666666666663" width="86.33333333333333" height="86.33333333333333" fill="#ffffff"/><rect x="259" y="431.67" width="43.17" height="43.17" fill="#b3efda"/><path d="M 259 474.84000000000003 A 43.17 43.17 0 0 0 302.17 431.67 L 259 431.67" fill="#62dfb2"/><rect x="302.17" y="431.67" width="43.17" height="43.17" fill="#4c9980"/><path d="M 302.17 431.67 A 43.17 43.17 0 0 0 345.34000000000003 474.84000000000003 L 345.34000000000003 431.67" fill="#80b7a4"/><rect x="259" y="474.83" width="43.17" height="43.17" fill="#d6f6eb"/><path d="M 259 474.83 A 43.17 43.17 0 0 1 302.17 518 L 259 518" fill="#90c0b0"/><rect x="302.17" y="474.83" width="43.17" height="43.17" fill="#8bbdac"/><path d="M 302.17 518 A 43.17 43.17 0 0 1  345.34000000000003 474.83 L 345.34000000000003 518" fill="#d5e7e1"/><rect x="345.33" y="431.67" width="86.33" height="86.33" fill="#98eacd"/><rect x="345.33" y="431.67" width="86.33" height="86.33" fill="#94c2b3"/><rect x="431.67" y="431.67" width="86.33" height="86.33" fill="#7be4be"/><path d="M 431.67 431.67 A 86.33 86.33 0 0 0 518 518 L 518 431.67" fill="#f0f7f5"/><rect x="518" y="431.67" width="86.33" height="86.33" fill="#42d8a2"/><path d="M 518 518 A 86.33 86.33 0 0 0 604.33 431.67 L 518 431.67" fill="#99eacd"/><rect x="604.33" y="431.67" width="86.33" height="86.33" fill="#5fdeb0"/><rect x="604.33" y="431.67" width="86.33" height="86.33" fill="#a2cabd"/><rect x="690.67" y="431.67" width="86.33" height="86.33" fill="#45d9a4"/><rect x="690.67" y="431.67" width="86.33" height="86.33" fill="#70ad99"/><rect x="777" y="431.67" width="86.33" height="86.33" fill="#78b29e"/><polygon points="863.33,431.67 863.33,518 777,518" fill="#eef5f3"/><rect x="863.33" y="431.67" width="86.33" height="86.33" fill="#31d59a"/><rect x="863.33" y="431.67" width="86.33" height="86.33" fill="#47d9a5"/><rect x="949.67" y="431.67" width="86.33" height="86.33" fill="#dbeae5"/><path d="M 949.67 518 A 86.33 86.33 0 0 1  1036 431.67 L 1036 518" fill="#edf5f2"/><rect x="1036" y="431.67" width="86.33" height="86.33" fill="#157a58"/><rect x="1036" y="431.67" width="86.33" height="86.33" fill="#cbf4e6"/><rect x="1122.33" y="431.67" width="86.33" height="86.33" fill="#f5faf8"/><rect x="1122.33" y="431.67" width="86.33" height="86.33" fill="#9fc9bb"/><rect x="1208.67" y="431.67" width="86.33" height="86.33" fill="#2e886a"/><path d="M 1208.67 431.67 A 86.33 86.33 0 0 0 1295 518 L 1295 431.67" fill="#3b8f73"/><rect x="1295" y="431.67" width="86.33" height="86.33" fill="#86e6c4"/><path d="M 1295 518 A 86.33 86.33 0 0 0 1381.33 431.67 L 1295 431.67" fill="#278465"/><rect x="0" y="518" width="86.33333333333333" height="86.33333333333333" fill="#ffffff"/><rect x="0" y="518" width="43.17" height="43.17" fill="#7bb4a1"/><polygon points="43.17,518 43.17,561.17 0,561.17" fill="#34d59b"/><rect x="43.17" y="518" width="43.17" height="43.17" fill="#dbeae5"/><polygon points="43.17,518 86.34,561.17 43.17,561.17" fill="#d4f6ea"/><rect x="0" y="561.17" width="43.17" height="43.17" fill="#298566"/><polygon points="0,561.17 43.17,561.17 0,604.3399999999999" fill="#9ec8ba"/><rect x="43.17" y="561.17" width="43.17" height="43.17" fill="#6bab96"/><polygon points="43.17,561.17 86.34,561.17 86.34,604.3399999999999" fill="#258364"/><rect x="86.33" y="518" width="86.33" height="86.33" fill="#59a088"/><path d="M 86.33 604.33 A 86.33 86.33 0 0 0 172.66 518 L 86.33 518" fill="#f9fefc"/><rect x="172.67" y="518" width="86.33" height="86.33" fill="#b2d3c8"/><rect x="172.67" y="518" width="86.33" height="86.33" fill="#94c2b2"/><rect x="259" y="518" width="86.33" height="86.33" fill="#b0efd8"/><polygon points="259,518 345.33,518 259,604.33" fill="#278465"/><rect x="345.3333333333333" y="518" width="86.33333333333333" height="86.33333333333333" fill="#ffffff"/><rect x="345.33" y="518" width="43.17" height="43.17" fill="#3dd7a0"/><path d="M 345.33 561.17 A 43.17 43.17 0 0 1 388.5 518 L 388.5 528.7925 A 32.3775 32.3775 0 0 0 356.1225 561.17" fill="#a3ecd2"/><rect x="388.5" y="518" width="43.17" height="43.17" fill="#ddf8ee"/><path d="M 388.5 518 A 43.17 43.17 0 0 1 431.67 561.17 L 420.8775 561.17 A 32.3775 32.3775 0 0 0 388.5 528.7925" fill="#e5faf2"/><rect x="345.33" y="561.17" width="43.17" height="43.17" fill="#36d69c"/><path d="M 345.33 561.17 A 43.17 43.17 0 0 0 388.5 604.3399999999999 L 388.5 593.5474999999999 A 32.3775 32.3775 0 0 1 356.1225 561.17" fill="#91e8c9"/><rect x="388.5" y="561.17" width="43.17" height="43.17" fill="#bef2df"/><path d="M 388.5 604.3399999999999 A 43.17 43.17 0 0 0 431.67 561.17 L 420.8775 561.17 A 32.3775 32.3775 0 0 1 388.5 593.5474999999999" fill="#228161"/><rect x="431.67" y="518" width="86.33" height="86.33" fill="#95c3b3"/><polygon points="431.67,518 518,518 431.67,604.33" fill="#d9e9e4"/><rect x="518" y="518" width="86.33333333333333" height="86.33333333333333" fill="#ffffff"/><rect x="518" y="518" width="43.17" height="43.17" fill="#66e0b4"/><path d="M 518 518 A 43.17 43.17 0 0 0 561.17 561.17 L 561.17 518" fill="#42d8a2"/><rect x="561.17" y="518" width="43.17" height="43.17" fill="#4ddaa7"/><path d="M 561.17 561.17 A 43.17 43.17 0 0 0 604.3399999999999 518 L 561.17 518" fill="#cbe2da"/><rect x="518" y="561.17" width="43.17" height="43.17" fill="#6fad98"/><path d="M 518 604.3399999999999 A 43.17 43.17 0 0 1  561.17 561.17 L 561.17 604.3399999999999" fill="#84e6c3"/><rect x="561.17" y="561.17" width="43.17" height="43.17" fill="#c2f2e1"/><path d="M 561.17 561.17 A 43.17 43.17 0 0 1 604.3399999999999 604.3399999999999 L 561.17 604.3399999999999" fill="#61dfb2"/><rect x="604.33" y="518" width="86.33" height="86.33" fill="#4edba8"/><path d="M 604.33 518 A 86.33 86.33 0 0 1  690.6600000000001 604.33 L 604.33 518 A 86.33 86.33 0 0 0 690.6600000000001 604.33" fill="#dff8ef"/><rect x="690.67" y="518" width="86.33" height="86.33" fill="#62a68f"/><polygon points="690.67,518 777,518 777,604.33" fill="#b1d3c7"/><rect x="777" y="518" width="86.33" height="86.33" fill="#ddece7"/><rect x="777" y="518" width="86.33" height="86.33" fill="#99c5b6"/><rect x="863.33" y="518" width="86.33" height="86.33" fill="#006e49"/><path d="M 863.33 518 A 86.33 86.33 0 0 1 949.6600000000001 604.33 L 863.33 604.33" fill="#92c1b1"/><rect x="949.6666666666666" y="518" width="86.33333333333333" height="86.33333333333333" fill="#ffffff"/><rect x="949.67" y="518" width="43.17" height="43.17" fill="#29d396"/><path d="M 949.67 518 A 43.17 43.17 0 0 0 992.8399999999999 561.17 L 992.8399999999999 518" fill="#6ce1b7"/><rect x="992.83" y="518" width="43.17" height="43.17" fill="#e7f1ee"/><path d="M 992.83 561.17 A 43.17 43.17 0 0 0 1036 518 L 992.83 518" fill="#b3efda"/><rect x="949.67" y="561.17" width="43.17" height="43.17" fill="#a3ecd2"/><path d="M 949.67 604.3399999999999 A 43.17 43.17 0 0 1  992.8399999999999 561.17 L 992.8399999999999 604.3399999999999" fill="#c1f2e1"/><rect x="992.83" y="561.17" width="43.17" height="43.17" fill="#56dcac"/><path d="M 992.83 561.17 A 43.17 43.17 0 0 1 1036 604.3399999999999 L 992.83 604.3399999999999" fill="#167b59"/><rect x="1036" y="518" width="86.33" height="86.33" fill="#31d59a"/><path d="M 1036 518 A 86.33 86.33 0 0 1  1122.33 604.33 L 1036 518 A 86.33 86.33 0 0 0 1122.33 604.33" fill="#177b5a"/><rect x="1122.33" y="518" width="86.33" height="86.33" fill="#d4e6e0"/><path d="M 1122.33 604.33 A 86.33 86.33 0 0 1  1208.6599999999999 518 L 1208.6599999999999 604.33" fill="#cae1d9"/><rect x="1208.67" y="518" width="86.33" height="86.33" fill="#e4f0ec"/><rect x="1208.67" y="518" width="86.33" height="86.33" fill="#7fb6a4"/><rect x="1295" y="518" width="86.33" height="86.33" fill="#85e6c3"/><polygon points="1295,518 1381.33,518 1381.33,604.33" fill="#89bcab"/><rect x="0" y="604.33" width="86.33" height="86.33" fill="#d8f7ec"/><path d="M 0 604.33 A 86.33 86.33 0 0 1  86.33 690.6600000000001 L 0 604.33 A 86.33 86.33 0 0 0 86.33 690.6600000000001" fill="#7de4bf"/><rect x="86.33" y="604.33" width="86.33" height="86.33" fill="#99eacd"/><path d="M 86.33 690.6600000000001 A 86.33 86.33 0 0 0 172.66 604.33 L 86.33 604.33" fill="#6ee1b8"/><rect x="172.67" y="604.33" width="86.33" height="86.33" fill="#c7dfd7"/><path d="M 172.67 690.6600000000001 A 86.33 86.33 0 0 1  259 604.33 L 172.67 690.6600000000001 A 86.33 86.33 0 0 0 259 604.33" fill="#39d69e"/><rect x="259" y="604.3333333333333" width="86.33333333333333" height="86.33333333333333" fill="#ffffff"/><rect x="259" y="604.33" width="43.17" height="43.17" fill="#afd1c6"/><path d="M 259 647.5 A 43.17 43.17 0 0 1 302.17 604.33 L 302.17 615.1225000000001 A 32.3775 32.3775 0 0 0 269.7925 647.5" fill="#0c7551"/><rect x="302.17" y="604.33" width="43.17" height="43.17" fill="#2dd498"/><path d="M 302.17 604.33 A 43.17 43.17 0 0 1 345.34000000000003 647.5 L 334.5475 647.5 A 32.3775 32.3775 0 0 0 302.17 615.1225000000001" fill="#8ae7c6"/><rect x="259" y="647.5" width="43.17" height="43.17" fill="#b3d4c8"/><path d="M 259 647.5 A 43.17 43.17 0 0 0 302.17 690.67 L 302.17 679.8775 A 32.3775 32.3775 0 0 1 269.7925 647.5" fill="#5edeb0"/><rect x="302.17" y="647.5" width="43.17" height="43.17" fill="#529d83"/><path d="M 302.17 690.67 A 43.17 43.17 0 0 0 345.34000000000003 647.5 L 334.5475 647.5 A 32.3775 32.3775 0 0 1 302.17 679.8775" fill="#4f9b81"/><rect x="345.33" y="604.33" width="86.33" height="86.33" fill="#f2fcf9"/><path d="M 345.33 690.6600000000001 A 86.33 86.33 0 0 1  431.65999999999997 604.33 L 431.65999999999997 690.6600000000001" fill="#8dbeae"/><rect x="431.67" y="604.33" width="86.33" height="86.33" fill="#def8ef"/><polygon points="431.67,604.33 518,604.33 431.67,690.6600000000001" fill="#e4faf2"/><rect x="518" y="604.33" width="86.33" height="86.33" fill="#61a58e"/><path d="M 518 604.33 A 86.33 86.33 0 0 1  604.33 690.6600000000001 L 518 604.33 A 86.33 86.33 0 0 0 604.33 690.6600000000001" fill="#d5e7e1"/><rect x="604.33" y="604.33" width="86.33" height="86.33" fill="#63a68f"/><path d="M 604.33 604.33 A 86.33 86.33 0 0 0 690.6600000000001 690.6600000000001 L 690.6600000000001 604.33" fill="#daf7ed"/><rect x="690.67" y="604.33" width="86.33" height="86.33" fill="#95e9cb"/><path d="M 690.67 604.33 A 86.33 86.33 0 0 1  777 690.6600000000001 L 690.67 604.33 A 86.33 86.33 0 0 0 777 690.6600000000001" fill="#c5ded6"/><rect x="777" y="604.33" width="86.33" height="86.33" fill="#f5fdfa"/><polygon points="777,604.33 863.33,604.33 863.33,690.6600000000001" fill="#529d84"/><rect x="863.3333333333333" y="604.3333333333333" width="86.33333333333333" height="86.33333333333333" fill="#ffffff"/><rect x="863.33" y="604.33" width="43.17" height="43.17" fill="#91c0b1"/><path d="M 863.33 604.33 A 43.17 43.17 0 0 0 906.5 647.5 L 906.5 604.33" fill="#187c5a"/><rect x="906.5" y="604.33" width="43.17" height="43.17" fill="#d5e7e1"/><path d="M 906.5 647.5 A 43.17 43.17 0 0 0 949.67 604.33 L 906.5 604.33" fill="#248363"/><rect x="863.33" y="647.5" width="43.17" height="43.17" fill="#1f805f"/><path d="M 863.33 690.67 A 43.17 43.17 0 0 1  906.5 647.5 L 906.5 690.67" fill="#2cd497"/><rect x="906.5" y="647.5" width="43.17" height="43.17" fill="#5bddae"/><path d="M 906.5 647.5 A 43.17 43.17 0 0 1 949.67 690.67 L 906.5 690.67" fill="#4cdaa7"/><rect x="949.67" y="604.33" width="86.33" height="86.33" fill="#dcf8ee"/><path d="M 949.67 604.33 A 86.33 86.33 0 0 1 1036 690.6600000000001 L 949.67 690.6600000000001" fill="#298566"/><rect x="1036" y="604.3333333333333" width="86.33333333333333" height="86.33333333333333" fill="#ffffff"/><rect x="1036" y="604.33" width="43.17" height="43.17" fill="#60deb1"/><path d="M 1036 604.33 A 43.17 43.17 0 0 0 1079.17 647.5 L 1079.17 604.33" fill="#177b5a"/><rect x="1079.17" y="604.33" width="43.17" height="43.17" fill="#dff8ef"/><path d="M 1079.17 647.5 A 43.17 43.17 0 0 0 1122.3400000000001 604.33 L 1079.17 604.33" fill="#d2e5df"/><rect x="1036" y="647.5" width="43.17" height="43.17" fill="#c8f4e4"/><path d="M 1036 690.67 A 43.17 43.17 0 0 1  1079.17 647.5 L 1079.17 690.67" fill="#31d59a"/><rect x="1079.17" y="647.5" width="43.17" height="43.17" fill="#93e9ca"/><path d="M 1079.17 647.5 A 43.17 43.17 0 0 1 1122.3400000000001 690.67 L 1079.17 690.67" fill="#d6f7eb"/><rect x="1122.3333333333333" y="604.3333333333333" width="86.33333333333333" height="86.33333333333333" fill="#ffffff"/><rect x="1122.33" y="604.33" width="43.17" height="43.17" fill="#68a993"/><path d="M 1122.33 604.33 A 43.17 43.17 0 0 1 1165.5 647.5 L 1122.33 647.5" fill="#92c1b1"/><rect x="1165.5" y="604.33" width="43.17" height="43.17" fill="#48d9a5"/><path d="M 1165.5 647.5 A 43.17 43.17 0 0 1  1208.67 604.33 L 1208.67 647.5" fill="#f4f9f7"/><rect x="1122.33" y="647.5" width="43.17" height="43.17" fill="#eff6f3"/><path d="M 1122.33 690.67 A 43.17 43.17 0 0 0 1165.5 647.5 L 1122.33 647.5" fill="#04704c"/><rect x="1165.5" y="647.5" width="43.17" height="43.17" fill="#e8faf4"/><path d="M 1165.5 647.5 A 43.17 43.17 0 0 0 1208.67 690.67 L 1208.67 647.5" fill="#e5f0ed"/><rect x="1208.67" y="604.33" width="86.33" height="86.33" fill="#fcfefd"/><polygon points="1295,604.33 1295,690.6600000000001 1208.67,690.6600000000001" fill="#70e2b9"/><rect x="1295" y="604.33" width="86.33" height="86.33" fill="#79b39f"/><polygon points="1295,604.33 1381.33,604.33 1295,690.6600000000001" fill="#daeae4"/><rect x="0" y="690.67" width="86.33" height="86.33" fill="#3ad69e"/><rect x="0" y="690.67" width="86.33" height="86.33" fill="#d3e6df"/><rect x="86.33" y="690.67" width="86.33" height="86.33" fill="#d1f5e8"/><polygon points="86.33,690.67 172.66,777 86.33,777" fill="#99eacd"/><rect x="172.67" y="690.67" width="86.33" height="86.33" fill="#82b8a5"/><polygon points="172.67,690.67 259,690.67 259,777" fill="#70e2b9"/><rect x="259" y="690.67" width="86.33" height="86.33" fill="#62dfb2"/><path d="M 259 777 A 86.33 86.33 0 0 0 345.33 690.67 L 259 690.67" fill="#79b39f"/><rect x="345.33" y="690.67" width="86.33" height="86.33" fill="#86e6c4"/><path d="M 345.33 690.67 A 86.33 86.33 0 0 1 431.65999999999997 777 L 345.33 777" fill="#4adaa6"/><rect x="431.67" y="690.67" width="86.33" height="86.33" fill="#65dfb3"/><path d="M 431.67 690.67 A 86.33 86.33 0 0 1 518 777 L 431.67 777" fill="#559e86"/><rect x="518" y="690.67" width="86.33" height="86.33" fill="#bedad0"/><polygon points="518,690.67 604.33,690.67 518,777" fill="#c4ded5"/><rect x="604.33" y="690.67" width="86.33" height="86.33" fill="#b3efda"/><path d="M 604.33 777 A 86.33 86.33 0 0 0 690.6600000000001 690.67 L 604.33 690.67" fill="#e6f1ed"/><rect x="690.67" y="690.67" width="86.33" height="86.33" fill="#afd2c6"/><rect x="690.67" y="690.67" width="86.33" height="86.33" fill="#9bebce"/><rect x="777" y="690.67" width="86.33" height="86.33" fill="#8cbead"/><path d="M 777 690.67 A 86.33 86.33 0 0 0 863.33 777 L 863.33 690.67" fill="#2fd499"/><rect x="863.33" y="690.67" width="86.33" height="86.33" fill="#dcf8ee"/><rect x="863.33" y="690.67" width="86.33" height="86.33" fill="#90e8c9"/><rect x="949.67" y="690.67" width="86.33" height="86.33" fill="#a4cbbe"/><path d="M 949.67 690.67 A 86.33 86.33 0 0 0 1036 777 L 1036 690.67" fill="#90c0b0"/><rect x="1036" y="690.67" width="86.33" height="86.33" fill="#b6f0db"/><rect x="1036" y="690.67" width="86.33" height="86.33" fill="#0c7551"/><rect x="1122.33" y="690.67" width="86.33" height="86.33" fill="#afefd8"/><path d="M 1122.33 777 A 86.33 86.33 0 0 1  1208.6599999999999 690.67 L 1122.33 777 A 86.33 86.33 0 0 0 1208.6599999999999 690.67" fill="#fdfefe"/><rect x="1208.6666666666665" y="690.6666666666666" width="86.33333333333333" height="86.33333333333333" fill="#ffffff"/><rect x="1208.67" y="690.67" width="43.17" height="43.17" fill="#c6dfd6"/><path d="M 1208.67 733.8399999999999 A 43.17 43.17 0 0 1  1251.8400000000001 690.67 L 1251.8400000000001 733.8399999999999" fill="#6ce1b7"/><rect x="1251.83" y="690.67" width="43.17" height="43.17" fill="#7fe5c0"/><path d="M 1251.83 690.67 A 43.17 43.17 0 0 1 1295 733.8399999999999 L 1251.83 733.8399999999999" fill="#a9cec2"/><rect x="1208.67" y="733.83" width="43.17" height="43.17" fill="#5bddae"/><path d="M 1208.67 733.83 A 43.17 43.17 0 0 0 1251.8400000000001 777 L 1251.8400000000001 733.83" fill="#0b7451"/><rect x="1251.83" y="733.83" width="43.17" height="43.17" fill="#fafcfc"/><path d="M 1251.83 777 A 43.17 43.17 0 0 0 1295 733.83 L 1251.83 733.83" fill="#0d7552"/><rect x="1295" y="690.67" width="86.33" height="86.33" fill="#107755"/><rect x="1295" y="690.67" width="86.33" height="86.33" fill="#7ab3a0"/></g></svg>