<?xml version="1.0" standalone="no"?><svg xmlns:xlink="http://www.w3.org/1999/xlink" xmlns="http://www.w3.org/2000/svg" viewBox="0 0 1000 562.5013573874454" preserveAspectRatio="xMaxYMax slice"><g transform="scale(0.7239399708976132)"><rect x="0" y="0" width="1381.3333333333333" height="777" fill="#ffffff"/><rect x="0" y="0" width="86.33" height="86.33" fill="#a2ddd1"/><path d="M 0 86.33 A 86.33 86.33 0 0 0 86.33 0 L 0 0" fill="#4a9078"/><rect x="86.33" y="0" width="86.33" height="86.33" fill="#8dd5c7"/><polygon points="86.33,0 172.66,0 172.66,86.33" fill="#94d8ca"/><rect x="172.67" y="0" width="86.33" height="86.33" fill="#b0cec4"/><polygon points="259,0 259,86.33 172.67,86.33" fill="#69c8b5"/><rect x="259" y="0" width="86.33" height="86.33" fill="#5ac2ae"/><rect x="259" y="0" width="86.33" height="86.33" fill="#6ba491"/><rect x="345.33" y="0" width="86.33" height="86.33" fill="#7daf9e"/><polygon points="345.33,0 431.65999999999997,0 345.33,86.33" fill="#fcfefd"/><rect x="431.67" y="0" width="86.33" height="86.33" fill="#28b095"/><path d="M 431.67 86.33 A 86.33 86.33 0 0 1  518 0 L 518 86.33" fill="#72cbba"/><rect x="518" y="0" width="86.33" height="86.33" fill="#53c0aa"/><rect x="518" y="0" width="86.33" height="86.33" fill="#c2e8e1"/><rect x="604.33" y="0" width="86.33" height="86.33" fill="#6aa390"/><polygon points="690.6600000000001,0 690.6600000000001,86.33 604.33,86.33" fill="#8ab7a8"/><rect x="690.67" y="0" width="86.33" height="86.33" fill="#ccece6"/><polygon points="777,0 777,86.33 690.67,86.33" fill="#2db297"/><rect x="777" y="0" width="86.33" height="86.33" fill="#7eb09f"/><rect x="777" y="0" width="86.33" height="86.33" fill="#1a7254"/><rect x="863.33" y="0" width="86.33" height="86.33" fill="#498f78"/><rect x="863.33" y="0" width="86.33" height="86.33" fill="#02a282"/><rect x="949.67" y="0" width="86.33" height="86.33" fill="#4abca6"/><rect x="949.67" y="0" width="86.33" height="86.33" fill="#84d2c2"/><rect x="1036" y="0" width="86.33" height="86.33" fill="#fefffe"/><path d="M 1036 0 A 86.33 86.33 0 0 0 1122.33 86.33 L 1122.33 0" fill="#cbece5"/><rect x="1122.33" y="0" width="86.33" height="86.33" fill="#01a181"/><polygon points="1122.33,0 1208.6599999999999,86.33 1122.33,86.33" fill="#32b49a"/><rect x="1208.67" y="0" width="86.33" height="86.33" fill="#0fa688"/><polygon points="1295,0 1295,86.33 1208.67,86.33" fill="#a6c8bd"/><rect x="1295" y="0" width="86.33" height="86.33" fill="#47bba4"/><polygon points="1295,0 1381.33,0 1381.33,86.33" fill="#90bbac"/><rect x="0" y="86.33" width="86.33" height="86.33" fill="#16a98c"/><rect x="0" y="86.33" width="86.33" height="86.33" fill="#84d2c2"/><rect x="86.33" y="86.33" width="86.33" height="86.33" fill="#e7f6f3"/><rect x="86.33" y="86.33" width="86.33" height="86.33" fill="#bae6dd"/><rect x="172.67" y="86.33" width="86.33" height="86.33" fill="#75ccbb"/><rect x="172.67" y="86.33" width="86.33" height="86.33" fill="#1c7356"/><rect x="259" y="86.33" width="86.33" height="86.33" fill="#0f6b4c"/><polygon points="259,86.33 345.33,172.66 259,172.66" fill="#83d1c2"/><rect x="345.33" y="86.33" width="86.33" height="86.33" fill="#2cb197"/><polygon points="345.33,86.33 431.65999999999997,86.33 431.65999999999997,172.66" fill="#0aa586"/><rect x="431.67" y="86.33" width="86.33" height="86.33" fill="#6dc9b7"/><rect x="431.67" y="86.33" width="86.33" height="86.33" fill="#f8fcfb"/><rect x="518" y="86.33" width="86.33" height="86.33" fill="#81b1a1"/><path d="M 518 86.33 A 86.33 86.33 0 0 0 604.33 172.66 L 604.33 86.33" fill="#aacabf"/><rect x="604.33" y="86.33" width="86.33" height="86.33" fill="#177052"/><rect x="604.33" y="86.33" width="86.33" height="86.33" fill="#187153"/><rect x="690.67" y="86.33" width="86.33" height="86.33" fill="#71cbb9"/><path d="M 690.67 172.66 A 86.33 86.33 0 0 1  777 86.33 L 777 172.66" fill="#38846a"/><rect x="777" y="86.33" width="86.33" height="86.33" fill="#25795d"/><polygon points="777,86.33 863.33,86.33 777,172.66" fill="#72a896"/><rect x="863.33" y="86.33" width="86.33" height="86.33" fill="#14a98b"/><polygon points="863.33,86.33 949.6600000000001,172.66 863.33,172.66" fill="#3ab79e"/><rect x="949.67" y="86.33" width="86.33" height="86.33" fill="#d5f0ea"/><rect x="949.67" y="86.33" width="86.33" height="86.33" fill="#b8e5dc"/><rect x="1036" y="86.33" width="86.33" height="86.33" fill="#4fbea8"/><path d="M 1036 86.33 A 86.33 86.33 0 0 0 1122.33 172.66 L 1122.33 86.33" fill="#39b69d"/><rect x="1122.33" y="86.33" width="86.33" height="86.33" fill="#ddf3ee"/><rect x="1122.33" y="86.33" width="86.33" height="86.33" fill="#096748"/><rect x="1208.67" y="86.33" width="86.33" height="86.33" fill="#a2c6b9"/><path d="M 1208.67 172.66 A 86.33 86.33 0 0 1  1295 86.33 L 1208.67 172.66 A 86.33 86.33 0 0 0 1295 86.33" fill="#36b59c"/><rect x="1295" y="86.33" width="86.33" height="86.33" fill="#4a9078"/><polygon points="1295,86.33 1381.33,86.33 1381.33,172.66" fill="#ffffff"/><rect x="0" y="172.67" width="86.33" height="86.33" fill="#488e76"/><rect x="0" y="172.67" width="86.33" height="86.33" fill="#8ab7a8"/><rect x="86.33" y="172.67" width="86.33" height="86.33" fill="#23785b"/><path d="M 86.33 172.67 A 86.33 86.33 0 0 1  172.66 259 L 86.33 172.67 A 86.33 86.33 0 0 0 172.66 259" fill="#dcf2ee"/><rect x="172.67" y="172.67" width="86.33" height="86.33" fill="#e5f5f2"/><path d="M 172.67 259 A 86.33 86.33 0 0 1  259 172.67 L 172.67 259 A 86.33 86.33 0 0 0 259 172.67" fill="#fdfefe"/><rect x="259" y="172.67" width="86.33" height="86.33" fill="#177052"/><path d="M 259 172.67 A 86.33 86.33 0 0 1  345.33 259 L 259 172.67 A 86.33 86.33 0 0 0 345.33 259" fill="#a4c7bb"/><rect x="345.33" y="172.67" width="86.33" height="86.33" fill="#9fdcd0"/><path d="M 345.33 259 A 86.33 86.33 0 0 1  431.65999999999997 172.67 L 345.33 259 A 86.33 86.33 0 0 0 431.65999999999997 172.67" fill="#49bca5"/><rect x="431.67" y="172.67" width="86.33" height="86.33" fill="#478e76"/><path d="M 431.67 172.67 A 86.33 86.33 0 0 1  518 259 L 431.67 172.67 A 86.33 86.33 0 0 0 518 259" fill="#afe2d8"/><rect x="518" y="172.67" width="86.33" height="86.33" fill="#b2cfc5"/><polygon points="604.33,172.67 604.33,259 518,259" fill="#eaf2ef"/><rect x="604.33" y="172.67" width="86.33" height="86.33" fill="#b1cfc5"/><path d="M 604.33 259 A 86.33 86.33 0 0 1  690.6600000000001 172.67 L 604.33 259 A 86.33 86.33 0 0 0 690.6600000000001 172.67" fill="#d4efea"/><rect x="690.67" y="172.67" width="86.33" height="86.33" fill="#c7ddd6"/><rect x="690.67" y="172.67" width="86.33" height="86.33" fill="#2bb196"/><rect x="777" y="172.67" width="86.33" height="86.33" fill="#6dc9b7"/><polygon points="777,172.67 863.33,259 777,259" fill="#edf8f6"/><rect x="863.33" y="172.67" width="86.33" height="86.33" fill="#c5dbd4"/><polygon points="863.33,172.67 949.6600000000001,259 863.33,259" fill="#9edbcf"/><rect x="949.67" y="172.67" width="86.33" height="86.33" fill="#feffff"/><rect x="949.67" y="172.67" width="86.33" height="86.33" fill="#8db9aa"/><rect x="1036" y="172.67" width="86.33" height="86.33" fill="#0b6949"/><path d="M 1036 259 A 86.33 86.33 0 0 0 1122.33 172.67 L 1036 172.67" fill="#8cd5c6"/><rect x="1122.33" y="172.67" width="86.33" height="86.33" fill="#1fac90"/><polygon points="1122.33,172.67 1208.6599999999999,259 1122.33,259" fill="#e5f5f2"/><rect x="1208.67" y="172.67" width="86.33" height="86.33" fill="#70cab9"/><rect x="1208.67" y="172.67" width="86.33" height="86.33" fill="#629f8a"/><rect x="1295" y="172.67" width="86.33" height="86.33" fill="#6ea693"/><polygon points="1295,172.67 1381.33,259 1295,259" fill="#bdd6ce"/><rect x="0" y="259" width="86.33" height="86.33" fill="#308065"/><path d="M 0 259 A 86.33 86.33 0 0 1  86.33 345.33 L 0 259 A 86.33 86.33 0 0 0 86.33 345.33" fill="#76ccbb"/><rect x="86.33" y="259" width="86.33" height="86.33" fill="#a4ddd2"/><polygon points="172.66,259 172.66,345.33 86.33,345.33" fill="#b1e2d9"/><rect x="172.67" y="259" width="86.33" height="86.33" fill="#1a7255"/><rect x="172.67" y="259" width="86.33" height="86.33" fill="#6bc8b6"/><rect x="259" y="259" width="86.33" height="86.33" fill="#569781"/><rect x="259" y="259" width="86.33" height="86.33" fill="#daf1ed"/><rect x="345.33" y="259" width="86.33" height="86.33" fill="#c0d8d0"/><polygon points="345.33,259 431.65999999999997,259 431.65999999999997,345.33" fill="#b5d1c8"/><rect x="431.67" y="259" width="86.33" height="86.33" fill="#b2e3d9"/><path d="M 431.67 259 A 86.33 86.33 0 0 1 518 345.33 L 431.67 345.33" fill="#4b9079"/><rect x="518" y="259" width="86.33" height="86.33" fill="#438b73"/><path d="M 518 345.33 A 86.33 86.33 0 0 1  604.33 259 L 604.33 345.33" fill="#2e7e63"/><rect x="604.33" y="259" width="86.33" height="86.33" fill="#18aa8d"/><rect x="604.33" y="259" width="86.33" height="86.33" fill="#a8dfd4"/><rect x="690.67" y="259" width="86.33" height="86.33" fill="#fdfefe"/><path d="M 690.67 259 A 86.33 86.33 0 0 0 777 345.33 L 777 259" fill="#c0e8e0"/><rect x="777" y="259" width="86.33" height="86.33" fill="#096848"/><polygon points="863.33,259 863.33,345.33 777,345.33" fill="#00a181"/><rect x="863.33" y="259" width="86.33" height="86.33" fill="#64c6b2"/><polygon points="863.33,259 949.6600000000001,259 863.33,345.33" fill="#afe2d8"/><rect x="949.67" y="259" width="86.33" height="86.33" fill="#c7dcd5"/><polygon points="1036,259 1036,345.33 949.67,345.33" fill="#89b6a7"/><rect x="1036" y="259" width="86.33" height="86.33" fill="#a4c7bb"/><path d="M 1036 259 A 86.33 86.33 0 0 0 1122.33 345.33 L 1122.33 259" fill="#3cb79f"/><rect x="1122.33" y="259" width="86.33" height="86.33" fill="#37846a"/><polygon points="1208.6599999999999,259 1208.6599999999999,345.33 1122.33,345.33" fill="#cdede6"/><rect x="1208.67" y="259" width="86.33" height="86.33" fill="#7dcfbf"/><polygon points="1208.67,259 1295,345.33 1208.67,345.33" fill="#50bfa9"/><rect x="1295" y="259" width="86.33" height="86.33" fill="#9ac1b4"/><path d="M 1295 345.33 A 86.33 86.33 0 0 1  1381.33 259 L 1295 345.33 A 86.33 86.33 0 0 0 1381.33 259" fill="#b5d1c8"/><rect x="0" y="345.33" width="86.33" height="86.33" fill="#106c4d"/><path d="M 0 431.65999999999997 A 86.33 86.33 0 0 0 86.33 345.33 L 0 345.33" fill="#a7ded3"/><rect x="86.33" y="345.33" width="86.33" height="86.33" fill="#62c5b1"/><path d="M 86.33 345.33 A 86.33 86.33 0 0 1  172.66 431.65999999999997 L 86.33 345.33 A 86.33 86.33 0 0 0 172.66 431.65999999999997" fill="#c0d8d0"/><rect x="172.67" y="345.33" width="86.33" height="86.33" fill="#2c7d62"/><path d="M 172.67 431.65999999999997 A 86.33 86.33 0 0 1  259 345.33 L 259 431.65999999999997" fill="#65c6b3"/><rect x="259" y="345.33" width="86.33" height="86.33" fill="#8ed5c7"/><rect x="259" y="345.33" width="86.33" height="86.33" fill="#f9fbfa"/><rect x="345.33" y="345.33" width="86.33" height="86.33" fill="#31b399"/><polygon points="431.65999999999997,345.33 431.65999999999997,431.65999999999997 345.33,431.65999999999997" fill="#01a181"/><rect x="431.67" y="345.33" width="86.33" height="86.33" fill="#2d7e63"/><rect x="431.67" y="345.33" width="86.33" height="86.33" fill="#1a7254"/><rect x="518" y="345.33" width="86.33" height="86.33" fill="#b0e2d8"/><polygon points="518,345.33 604.33,345.33 604.33,431.65999999999997" fill="#53957f"/><rect x="604.33" y="345.33" width="86.33" height="86.33" fill="#b6d2c8"/><polygon points="690.6600000000001,345.33 690.6600000000001,431.65999999999997 604.33,431.65999999999997" fill="#1eac90"/><rect x="690.67" y="345.33" width="86.33" height="86.33" fill="#89b6a7"/><rect x="690.67" y="345.33" width="86.33" height="86.33" fill="#e4eeeb"/><rect x="777" y="345.33" width="86.33" height="86.33" fill="#b0cfc4"/><rect x="777" y="345.33" width="86.33" height="86.33" fill="#65a08c"/><rect x="863.33" y="345.33" width="86.33" height="86.33" fill="#f1faf8"/><path d="M 863.33 431.65999999999997 A 86.33 86.33 0 0 1  949.6600000000001 345.33 L 863.33 431.65999999999997 A 86.33 86.33 0 0 0 949.6600000000001 345.33" fill="#d1e3dd"/><rect x="949.67" y="345.33" width="86.33" height="86.33" fill="#39b69d"/><rect x="949.67" y="345.33" width="86.33" height="86.33" fill="#348267"/><rect x="1036" y="345.33" width="86.33" height="86.33" fill="#73a997"/><polygon points="1036,345.33 1122.33,431.65999999999997 1036,431.65999999999997" fill="#86d3c3"/><rect x="1122.33" y="345.33" width="86.33" height="86.33" fill="#6cc9b6"/><rect x="1122.33" y="345.33" width="86.33" height="86.33" fill="#25795d"/><rect x="1208.67" y="345.33" width="86.33" height="86.33" fill="#1c7356"/><rect x="1208.67" y="345.33" width="86.33" height="86.33" fill="#43baa2"/><rect x="1295" y="345.33" width="86.33" height="86.33" fill="#fdfefe"/><rect x="1295" y="345.33" width="86.33" height="86.33" fill="#83d1c1"/><rect x="0" y="431.67" width="86.33" height="86.33" fill="#9ac1b4"/><path d="M 0 518 A 86.33 86.33 0 0 1  86.33 431.67 L 0 518 A 86.33 86.33 0 0 0 86.33 431.67" fill="#ddf2ee"/><rect x="86.33" y="431.67" width="86.33" height="86.33" fill="#20ad91"/><path d="M 86.33 431.67 A 86.33 86.33 0 0 1 172.66 518 L 86.33 518" fill="#bfe8e0"/><rect x="172.67" y="431.67" width="86.33" height="86.33" fill="#7acebd"/><rect x="172.67" y="431.67" width="86.33" height="86.33" fill="#aae0d5"/><rect x="259" y="431.67" width="86.33" height="86.33" fill="#307f65"/><polygon points="259,431.67 345.33,431.67 259,518" fill="#96bfb1"/><rect x="345.33" y="431.67" width="86.33" height="86.33" fill="#c9ebe4"/><polygon points="345.33,431.67 431.65999999999997,431.67 345.33,518" fill="#ceede7"/><rect x="431.67" y="431.67" width="86.33" height="86.33" fill="#e0f4f0"/><path d="M 431.67 431.67 A 86.33 86.33 0 0 1  518 518 L 431.67 431.67 A 86.33 86.33 0 0 0 518 518" fill="#74ccba"/><rect x="518" y="431.67" width="86.33" height="86.33" fill="#31b399"/><path d="M 518 518 A 86.33 86.33 0 0 1  604.33 431.67 L 604.33 518" fill="#54c0ab"/><rect x="604.33" y="431.67" width="86.33" height="86.33" fill="#096748"/><rect x="604.33" y="431.67" width="86.33" height="86.33" fill="#c4dbd3"/><rect x="690.67" y="431.67" width="86.33" height="86.33" fill="#e5f6f2"/><polygon points="777,431.67 777,518 690.67,518" fill="#77cdbc"/><rect x="777" y="431.67" width="86.33" height="86.33" fill="#78ac9a"/><polygon points="863.33,431.67 863.33,518 777,518" fill="#0d6a4b"/><rect x="863.33" y="431.67" width="86.33" height="86.33" fill="#8bd4c6"/><rect x="863.33" y="431.67" width="86.33" height="86.33" fill="#3d886f"/><rect x="949.67" y="431.67" width="86.33" height="86.33" fill="#93bdaf"/><polygon points="949.67,431.67 1036,431.67 949.67,518" fill="#82b2a2"/><rect x="1036" y="431.67" width="86.33" height="86.33" fill="#65a08c"/><path d="M 1036 431.67 A 86.33 86.33 0 0 1  1122.33 518 L 1036 431.67 A 86.33 86.33 0 0 0 1122.33 518" fill="#026343"/><rect x="1122.33" y="431.67" width="86.33" height="86.33" fill="#76ccbb"/><rect x="1122.33" y="431.67" width="86.33" height="86.33" fill="#0b6949"/><rect x="1208.67" y="431.67" width="86.33" height="86.33" fill="#91d7c9"/><polygon points="1208.67,431.67 1295,431.67 1208.67,518" fill="#1c7356"/><rect x="1295" y="431.67" width="86.33" height="86.33" fill="#9dc2b6"/><polygon points="1295,431.67 1381.33,431.67 1381.33,518" fill="#def3ef"/><rect x="0" y="518" width="86.33" height="86.33" fill="#7bae9d"/><rect x="0" y="518" width="86.33" height="86.33" fill="#4f937c"/><rect x="86.33" y="518" width="86.33" height="86.33" fill="#4cbda7"/><rect x="86.33" y="518" width="86.33" height="86.33" fill="#a4c7bb"/><rect x="172.67" y="518" width="86.33" height="86.33" fill="#9fc4b7"/><rect x="172.67" y="518" width="86.33" height="86.33" fill="#8bd4c6"/><rect x="259" y="518" width="86.33" height="86.33" fill="#ecf8f6"/><polygon points="345.33,518 345.33,604.33 259,604.33" fill="#91d7c9"/><rect x="345.33" y="518" width="86.33" height="86.33" fill="#50937d"/><rect x="345.33" y="518" width="86.33" height="86.33" fill="#ebf3f0"/><rect x="431.67" y="518" width="86.33" height="86.33" fill="#04a383"/><path d="M 431.67 518 A 86.33 86.33 0 0 1  518 604.33 L 431.67 518 A 86.33 86.33 0 0 0 518 604.33" fill="#589883"/><rect x="518" y="518" width="86.33" height="86.33" fill="#ffffff"/><polygon points="518,518 604.33,518 518,604.33" fill="#fbfcfc"/><rect x="604.33" y="518" width="86.33" height="86.33" fill="#6fcab8"/><rect x="604.33" y="518" width="86.33" height="86.33" fill="#86d2c3"/><rect x="690.67" y="518" width="86.33" height="86.33" fill="#428b72"/><rect x="690.67" y="518" width="86.33" height="86.33" fill="#29b095"/><rect x="777" y="518" width="86.33" height="86.33" fill="#55c0ab"/><polygon points="863.33,518 863.33,604.33 777,604.33" fill="#83b3a3"/><rect x="863.33" y="518" width="86.33" height="86.33" fill="#8ed5c7"/><rect x="863.33" y="518" width="86.33" height="86.33" fill="#8dd5c7"/><rect x="949.67" y="518" width="86.33" height="86.33" fill="#549680"/><path d="M 949.67 604.33 A 86.33 86.33 0 0 1  1036 518 L 1036 604.33" fill="#0ba587"/><rect x="1036" y="518" width="86.33" height="86.33" fill="#b5e4db"/><path d="M 1036 518 A 86.33 86.33 0 0 0 1122.33 604.33 L 1122.33 518" fill="#1bab8e"/><rect x="1122.33" y="518" width="86.33" height="86.33" fill="#d5efea"/><polygon points="1208.6599999999999,518 1208.6599999999999,604.33 1122.33,604.33" fill="#f2faf8"/><rect x="1208.67" y="518" width="86.33" height="86.33" fill="#e0f4f0"/><path d="M 1208.67 518 A 86.33 86.33 0 0 1  1295 604.33 L 1208.67 518 A 86.33 86.33 0 0 0 1295 604.33" fill="#86b4a5"/><rect x="1295" y="518" width="86.33" height="86.33" fill="#ceede7"/><polygon points="1295,518 1381.33,518 1381.33,604.33" fill="#c5dbd3"/><rect x="0" y="604.33" width="86.33" height="86.33" fill="#c9ded7"/><rect x="0" y="604.33" width="86.33" height="86.33" fill="#91bbad"/><rect x="86.33" y="604.33" width="86.33" height="86.33" fill="#3b866d"/><polygon points="86.33,604.33 172.66,690.6600000000001 86.33,690.6600000000001" fill="#88d3c4"/><rect x="172.67" y="604.33" width="86.33" height="86.33" fill="#50937d"/><polygon points="259,604.33 259,690.6600000000001 172.67,690.6600000000001" fill="#639f8b"/><rect x="259" y="604.33" width="86.33" height="86.33" fill="#ecf8f6"/><polygon points="259,604.33 345.33,604.33 345.33,690.6600000000001" fill="#89b6a7"/><rect x="345.33" y="604.33" width="86.33" height="86.33" fill="#18aa8d"/><polygon points="345.33,604.33 431.65999999999997,690.6600000000001 345.33,690.6600000000001" fill="#dbf2ed"/><rect x="431.67" y="604.33" width="86.33" height="86.33" fill="#a3c6ba"/><rect x="431.67" y="604.33" width="86.33" height="86.33" fill="#80b1a0"/><rect x="518" y="604.33" width="86.33" height="86.33" fill="#4a9078"/><rect x="518" y="604.33" width="86.33" height="86.33" fill="#84d2c2"/><rect x="604.33" y="604.33" width="86.33" height="86.33" fill="#b9d4cb"/><path d="M 604.33 690.6600000000001 A 86.33 86.33 0 0 1  690.6600000000001 604.33 L 604.33 690.6600000000001 A 86.33 86.33 0 0 0 690.6600000000001 604.33" fill="#468d75"/><rect x="690.67" y="604.33" width="86.33" height="86.33" fill="#79ac9b"/><rect x="690.67" y="604.33" width="86.33" height="86.33" fill="#12a88a"/><rect x="777" y="604.33" width="86.33" height="86.33" fill="#167052"/><path d="M 777 604.33 A 86.33 86.33 0 0 1  863.33 690.6600000000001 L 777 604.33 A 86.33 86.33 0 0 0 863.33 690.6600000000001" fill="#609d88"/><rect x="863.33" y="604.33" width="86.33" height="86.33" fill="#4a9078"/><rect x="863.33" y="604.33" width="86.33" height="86.33" fill="#76ab99"/><rect x="949.67" y="604.33" width="86.33" height="86.33" fill="#6ecab7"/><rect x="949.67" y="604.33" width="86.33" height="86.33" fill="#106c4d"/><rect x="1036" y="604.33" width="86.33" height="86.33" fill="#abccc1"/><rect x="1036" y="604.33" width="86.33" height="86.33" fill="#177052"/><rect x="1122.33" y="604.33" width="86.33" height="86.33" fill="#d9f1ec"/><path d="M 1122.33 604.33 A 86.33 86.33 0 0 1  1208.6599999999999 690.6600000000001 L 1122.33 604.33 A 86.33 86.33 0 0 0 1208.6599999999999 690.6600000000001" fill="#daf1ed"/><rect x="1208.67" y="604.33" width="86.33" height="86.33" fill="#559680"/><polygon points="1208.67,604.33 1295,690.6600000000001 1208.67,690.6600000000001" fill="#63c5b2"/><rect x="1295" y="604.33" width="86.33" height="86.33" fill="#6aa390"/><polygon points="1381.33,604.33 1381.33,690.6600000000001 1295,690.6600000000001" fill="#d0e2dc"/><rect x="0" y="690.67" width="86.33" height="86.33" fill="#37b59c"/><path d="M 0 777 A 86.33 86.33 0 0 1  86.33 690.67 L 86.33 777" fill="#026343"/><rect x="86.33" y="690.67" width="86.33" height="86.33" fill="#6ea693"/><rect x="86.33" y="690.67" width="86.33" height="86.33" fill="#9ddbcf"/><rect x="172.67" y="690.67" width="86.33" height="86.33" fill="#d9f1ec"/><rect x="172.67" y="690.67" width="86.33" height="86.33" fill="#09a486"/><rect x="259" y="690.67" width="86.33" height="86.33" fill="#9fc4b7"/><rect x="259" y="690.67" width="86.33" height="86.33" fill="#7bcebe"/><rect x="345.33" y="690.67" width="86.33" height="86.33" fill="#fdfefe"/><rect x="345.33" y="690.67" width="86.33" height="86.33" fill="#ecf3f1"/><rect x="431.67" y="690.67" width="86.33" height="86.33" fill="#9adacd"/><rect x="431.67" y="690.67" width="86.33" height="86.33" fill="#d6f0eb"/><rect x="518" y="690.67" width="86.33" height="86.33" fill="#abe0d6"/><rect x="518" y="690.67" width="86.33" height="86.33" fill="#95d8ca"/><rect x="604.33" y="690.67" width="86.33" height="86.33" fill="#ecf8f6"/><path d="M 604.33 777 A 86.33 86.33 0 0 1  690.6600000000001 690.67 L 690.6600000000001 777" fill="#2bb196"/><rect x="690.67" y="690.67" width="86.33" height="86.33" fill="#70cab8"/><rect x="690.67" y="690.67" width="86.33" height="86.33" fill="#c1e8e0"/><rect x="777" y="690.67" width="86.33" height="86.33" fill="#d4efea"/><polygon points="777,690.67 863.33,777 777,777" fill="#97d9cc"/><rect x="863.33" y="690.67" width="86.33" height="86.33" fill="#146e50"/><polygon points="863.33,690.67 949.6600000000001,690.67 949.6600000000001,777" fill="#1dac8f"/><rect x="949.67" y="690.67" width="86.33" height="86.33" fill="#afe1d7"/><polygon points="949.67,690.67 1036,690.67 1036,777" fill="#98c0b2"/><rect x="1036" y="690.67" width="86.33" height="86.33" fill="#5e9c87"/><polygon points="1036,690.67 1122.33,690.67 1036,777" fill="#e7f6f3"/><rect x="1122.33" y="690.67" width="86.33" height="86.33" fill="#c8ebe4"/><rect x="1122.33" y="690.67" width="86.33" height="86.33" fill="#b0e2d8"/><rect x="1208.67" y="690.67" width="86.33" height="86.33" fill="#4a9078"/><rect x="1208.67" y="690.67" width="86.33" height="86.33" fill="#dcf2ee"/><rect x="1295" y="690.67" width="86.33" height="86.33" fill="#5d9b86"/><rect x="1295" y="690.67" width="86.33" height="86.33" fill="#74a997"/></g></svg>