<?xml version="1.0" standalone="no"?><svg xmlns:xlink="http://www.w3.org/1999/xlink" xmlns="http://www.w3.org/2000/svg" viewBox="0 0 1000 500.00000000000006" preserveAspectRatio="xMaxYMax slice"><g transform="scale(0.6622516556291391)"><rect x="0" y="0" width="1510" height="755" fill="#ffffff"/><rect x="483.2" y="30.200000000000003" width="15.099999999999994" height="15.099999999999994" fill="#ffffff"/><path d="M 490.75 30.2 A 7.55 7.55 0 0 1  498.3 37.75 L 490.75 30.2 A 7.55 7.55 0 0 0 498.3 37.75" fill="#00A181"/><path d="M 483.2 45.3 A 7.55 7.55 0 0 1  490.75 37.75 L 483.2 45.3 A 7.55 7.55 0 0 0 490.75 37.75" fill="#006241"/><rect x="785.2" y="30.200000000000003" width="15.099999999999994" height="15.099999999999994" fill="#ffffff"/><path d="M 792.75 45.3 A 7.55 7.55 0 0 1  800.3 37.75 L 792.75 45.3 A 7.55 7.55 0 0 0 800.3 37.75" fill="#00A181"/><rect x="1313.7" y="30.200000000000003" width="15.099999999999994" height="15.099999999999994" fill="#ffffff"/><path d="M 1321.25 30.2 A 7.55 7.55 0 0 1  1328.8 37.75 L 1321.25 30.2 A 7.55 7.55 0 0 0 1328.8 37.75" fill="#006241"/><path d="M 1389.2 45.3 A 15.1 15.1 0 0 1  1404.3 30.2 L 1389.2 45.3 A 15.1 15.1 0 0 0 1404.3 30.2" fill="#00A181"/><path d="M 328.58 102.08 A 22.35 22.35 0 0 1  350.93 124.43 L 328.58 102.08 A 22.35 22.35 0 0 0 350.93 124.43" fill="#006241"/><path d="M 555.08 124.43 A 22.35 22.35 0 0 1  577.4300000000001 102.08 L 555.08 124.43 A 22.35 22.35 0 0 0 577.4300000000001 102.08" fill="#006241"/><rect x="630.576" y="102.076" width="22.348" height="22.348" fill="#ffffff"/><path d="M 630.58 113.25 A 11.17 11.17 0 0 1  641.75 124.42 L 630.58 113.25 A 11.17 11.17 0 0 0 641.75 124.42" fill="#006241"/><path d="M 641.75 124.42 A 11.17 11.17 0 0 1  652.92 113.25 L 641.75 124.42 A 11.17 11.17 0 0 0 652.92 113.25" fill="#006241"/><path d="M 781.58 124.43 A 22.35 22.35 0 0 1  803.9300000000001 102.08 L 781.58 124.43 A 22.35 22.35 0 0 0 803.9300000000001 102.08" fill="#00A181"/><path d="M 857.08 102.08 A 22.35 22.35 0 0 1  879.4300000000001 124.43 L 857.08 102.08 A 22.35 22.35 0 0 0 879.4300000000001 124.43" fill="#006241"/><path d="M 1159.08 124.43 A 22.35 22.35 0 0 1  1181.4299999999998 102.08 L 1159.08 124.43 A 22.35 22.35 0 0 0 1181.4299999999998 102.08" fill="#00A181"/><path d="M 1385.58 124.43 A 22.35 22.35 0 0 1  1407.9299999999998 102.08 L 1385.58 124.43 A 22.35 22.35 0 0 0 1407.9299999999998 102.08" fill="#00A181"/><rect x="1461.076" y="102.076" width="22.348" height="22.348" fill="#ffffff"/><path d="M 1472.25 113.25 A 11.17 11.17 0 0 1  1483.42 124.42 L 1472.25 113.25 A 11.17 11.17 0 0 0 1483.42 124.42" fill="#006241"/><path d="M 22.95 203.54999999999998 A 29.6 29.6 0 0 1  52.55 173.95 L 22.95 203.54999999999998 A 29.6 29.6 0 0 0 52.55 173.95" fill="#006241"/><path d="M 98.45 203.54999999999998 A 29.6 29.6 0 0 1  128.05 173.95 L 98.45 203.54999999999998 A 29.6 29.6 0 0 0 128.05 173.95" fill="#00A181"/><path d="M 400.45 203.54999999999998 A 29.6 29.6 0 0 1  430.05 173.95 L 400.45 203.54999999999998 A 29.6 29.6 0 0 0 430.05 173.95" fill="#006241"/><path d="M 551.45 173.95 A 29.6 29.6 0 0 1  581.0500000000001 203.54999999999998 L 551.45 173.95 A 29.6 29.6 0 0 0 581.0500000000001 203.54999999999998" fill="#00A181"/><path d="M 702.45 203.54999999999998 A 29.6 29.6 0 0 1  732.0500000000001 173.95 L 702.45 203.54999999999998 A 29.6 29.6 0 0 0 732.0500000000001 173.95" fill="#00A181"/><rect x="777.952" y="173.952" width="29.596000000000004" height="29.596000000000004" fill="#ffffff"/><path d="M 928.95 203.54999999999998 A 29.6 29.6 0 0 1  958.5500000000001 173.95 L 928.95 203.54999999999998 A 29.6 29.6 0 0 0 958.5500000000001 173.95" fill="#00A181"/><path d="M 1004.45 173.95 A 29.6 29.6 0 0 1  1034.05 203.54999999999998 L 1004.45 173.95 A 29.6 29.6 0 0 0 1034.05 203.54999999999998" fill="#00A181"/><path d="M 1230.95 173.95 A 29.6 29.6 0 0 1  1260.55 203.54999999999998 L 1230.95 173.95 A 29.6 29.6 0 0 0 1260.55 203.54999999999998" fill="#00A181"/><path d="M 1381.95 173.95 A 29.6 29.6 0 0 1  1411.55 203.54999999999998 L 1381.95 173.95 A 29.6 29.6 0 0 0 1411.55 203.54999999999998" fill="#00A181"/><path d="M 19.33 282.67 A 36.84 36.84 0 0 1  56.17 245.83 L 19.33 282.67 A 36.84 36.84 0 0 0 56.17 245.83" fill="#006241"/><path d="M 94.83 282.67 A 36.84 36.84 0 0 1  131.67000000000002 245.83 L 94.83 282.67 A 36.84 36.84 0 0 0 131.67000000000002 245.83" fill="#00A181"/><rect x="245.828" y="245.828" width="36.843999999999994" height="36.843999999999994" fill="#ffffff"/><path d="M 547.83 245.83 A 36.84 36.84 0 0 1  584.6700000000001 282.67 L 547.83 245.83 A 36.84 36.84 0 0 0 584.6700000000001 282.67" fill="#006241"/><path d="M 1151.83 245.83 A 36.84 36.84 0 0 1  1188.6699999999998 282.67 L 1151.83 245.83 A 36.84 36.84 0 0 0 1188.6699999999998 282.67" fill="#006241"/><path d="M 1302.83 245.83 A 36.84 36.84 0 0 1  1339.6699999999998 282.67 L 1302.83 245.83 A 36.84 36.84 0 0 0 1339.6699999999998 282.67" fill="#00A181"/><path d="M 1378.33 282.67 A 36.84 36.84 0 0 1  1415.1699999999998 245.83 L 1378.33 282.67 A 36.84 36.84 0 0 0 1415.1699999999998 245.83" fill="#00A181"/><rect x="1453.828" y="245.828" width="36.843999999999994" height="36.843999999999994" fill="#ffffff"/><path d="M 1453.83 264.25 A 18.42 18.42 0 0 1  1472.25 282.67 L 1453.83 264.25 A 18.42 18.42 0 0 0 1472.25 282.67" fill="#006241"/><path d="M 166.7 317.7 A 44.09 44.09 0 0 1  210.79 361.78999999999996 L 166.7 317.7 A 44.09 44.09 0 0 0 210.79 361.78999999999996" fill="#006241"/><path d="M 242.2 361.78999999999996 A 44.09 44.09 0 0 1  286.28999999999996 317.7 L 242.2 361.78999999999996 A 44.09 44.09 0 0 0 286.28999999999996 317.7" fill="#006241"/><path d="M 317.7 361.78999999999996 A 44.09 44.09 0 0 1  361.78999999999996 317.7 L 317.7 361.78999999999996 A 44.09 44.09 0 0 0 361.78999999999996 317.7" fill="#00A181"/><rect x="468.704" y="317.704" width="44.092" height="44.092" fill="#ffffff"/><rect x="695.204" y="317.704" width="44.092" height="44.092" fill="#ffffff"/><path d="M 717.25 339.75 A 22.05 22.05 0 0 1  739.3 317.7 L 717.25 339.75 A 22.05 22.05 0 0 0 739.3 317.7" fill="#00A181"/><path d="M 695.2 361.8 A 22.05 22.05 0 0 1  717.25 339.75 L 695.2 361.8 A 22.05 22.05 0 0 0 717.25 339.75" fill="#006241"/><path d="M 717.25 339.75 A 22.05 22.05 0 0 1  739.3 361.8 L 717.25 339.75 A 22.05 22.05 0 0 0 739.3 361.8" fill="#006241"/><path d="M 846.2 361.78999999999996 A 44.09 44.09 0 0 1  890.2900000000001 317.7 L 846.2 361.78999999999996 A 44.09 44.09 0 0 0 890.2900000000001 317.7" fill="#00A181"/><path d="M 921.7 361.78999999999996 A 44.09 44.09 0 0 1  965.7900000000001 317.7 L 921.7 361.78999999999996 A 44.09 44.09 0 0 0 965.7900000000001 317.7" fill="#00A181"/><path d="M 997.2 361.78999999999996 A 44.09 44.09 0 0 1  1041.29 317.7 L 997.2 361.78999999999996 A 44.09 44.09 0 0 0 1041.29 317.7" fill="#006241"/><rect x="1299.204" y="317.704" width="44.092" height="44.092" fill="#ffffff"/><path d="M 1321.25 361.8 A 22.05 22.05 0 0 1  1343.3 339.75 L 1321.25 361.8 A 22.05 22.05 0 0 0 1343.3 339.75" fill="#006241"/><path d="M 1374.7 317.7 A 44.09 44.09 0 0 1  1418.79 361.78999999999996 L 1374.7 317.7 A 44.09 44.09 0 0 0 1418.79 361.78999999999996" fill="#006241"/><path d="M 1450.2 361.78999999999996 A 44.09 44.09 0 0 1  1494.29 317.7 L 1450.2 361.78999999999996 A 44.09 44.09 0 0 0 1494.29 317.7" fill="#006241"/><path d="M 465.08 440.91999999999996 A 51.34 51.34 0 0 1  516.42 389.58 L 465.08 440.91999999999996 A 51.34 51.34 0 0 0 516.42 389.58" fill="#006241"/><rect x="616.08" y="389.58" width="51.339999999999996" height="51.339999999999996" fill="#ffffff"/><path d="M 641.75 389.58 A 25.67 25.67 0 0 1  667.42 415.25 L 641.75 389.58 A 25.67 25.67 0 0 0 667.42 415.25" fill="#00A181"/><path d="M 993.58 440.91999999999996 A 51.34 51.34 0 0 1  1044.92 389.58 L 993.58 440.91999999999996 A 51.34 51.34 0 0 0 1044.92 389.58" fill="#006241"/><path d="M 1295.58 389.58 A 51.34 51.34 0 0 1  1346.9199999999998 440.91999999999996 L 1295.58 389.58 A 51.34 51.34 0 0 0 1346.9199999999998 440.91999999999996" fill="#00A181"/><rect x="83.956" y="461.456" width="58.587999999999994" height="58.587999999999994" fill="#ffffff"/><path d="M 83.96 490.75 A 29.29 29.29 0 0 1  113.25 461.46 L 83.96 490.75 A 29.29 29.29 0 0 0 113.25 461.46" fill="#00A181"/><path d="M 83.96 520.04 A 29.29 29.29 0 0 1  113.25 490.75 L 83.96 520.04 A 29.29 29.29 0 0 0 113.25 490.75" fill="#006241"/><path d="M 159.46 461.46 A 58.59 58.59 0 0 1  218.05 520.05 L 159.46 461.46 A 58.59 58.59 0 0 0 218.05 520.05" fill="#00A181"/><path d="M 234.96 520.05 A 58.59 58.59 0 0 1  293.55 461.46 L 234.96 520.05 A 58.59 58.59 0 0 0 293.55 461.46" fill="#00A181"/><rect x="461.456" y="461.456" width="58.587999999999994" height="58.587999999999994" fill="#ffffff"/><path d="M 461.46 461.46 A 29.29 29.29 0 0 1  490.75 490.75 L 461.46 461.46 A 29.29 29.29 0 0 0 490.75 490.75" fill="#00A181"/><path d="M 490.75 461.46 A 29.29 29.29 0 0 1  520.04 490.75 L 490.75 461.46 A 29.29 29.29 0 0 0 520.04 490.75" fill="#00A181"/><path d="M 838.96 520.05 A 58.59 58.59 0 0 1  897.5500000000001 461.46 L 838.96 520.05 A 58.59 58.59 0 0 0 897.5500000000001 461.46" fill="#006241"/><path d="M 1140.96 461.46 A 58.59 58.59 0 0 1  1199.55 520.05 L 1140.96 461.46 A 58.59 58.59 0 0 0 1199.55 520.05" fill="#006241"/><rect x="1291.956" y="461.456" width="58.587999999999994" height="58.587999999999994" fill="#ffffff"/><path d="M 1321.25 520.04 A 29.29 29.29 0 0 1  1350.54 490.75 L 1321.25 520.04 A 29.29 29.29 0 0 0 1350.54 490.75" fill="#006241"/><path d="M 4.83 533.33 A 65.84 65.84 0 0 1  70.67 599.1700000000001 L 4.83 533.33 A 65.84 65.84 0 0 0 70.67 599.1700000000001" fill="#006241"/><path d="M 80.33 599.1700000000001 A 65.84 65.84 0 0 1  146.17000000000002 533.33 L 80.33 599.1700000000001 A 65.84 65.84 0 0 0 146.17000000000002 533.33" fill="#006241"/><path d="M 155.83 533.33 A 65.84 65.84 0 0 1  221.67000000000002 599.1700000000001 L 155.83 533.33 A 65.84 65.84 0 0 0 221.67000000000002 599.1700000000001" fill="#00A181"/><path d="M 306.83 599.1700000000001 A 65.84 65.84 0 0 1  372.66999999999996 533.33 L 306.83 599.1700000000001 A 65.84 65.84 0 0 0 372.66999999999996 533.33" fill="#00A181"/><rect x="684.332" y="533.332" width="65.836" height="65.836" fill="#ffffff"/><path d="M 684.33 533.33 A 32.92 32.92 0 0 1  717.25 566.25 L 684.33 533.33 A 32.92 32.92 0 0 0 717.25 566.25" fill="#006241"/><path d="M 759.83 599.1700000000001 A 65.84 65.84 0 0 1  825.6700000000001 533.33 L 759.83 599.1700000000001 A 65.84 65.84 0 0 0 825.6700000000001 533.33" fill="#006241"/><rect x="1137.332" y="533.332" width="65.836" height="65.836" fill="#ffffff"/><path d="M 1170.25 533.33 A 32.92 32.92 0 0 1  1203.17 566.25 L 1170.25 533.33 A 32.92 32.92 0 0 0 1203.17 566.25" fill="#00A181"/><path d="M 76.71 605.21 A 73.08 73.08 0 0 1  149.79 678.2900000000001 L 76.71 605.21 A 73.08 73.08 0 0 0 149.79 678.2900000000001" fill="#00A181"/><path d="M 303.21 678.2900000000001 A 73.08 73.08 0 0 1  376.28999999999996 605.21 L 303.21 678.2900000000001 A 73.08 73.08 0 0 0 376.28999999999996 605.21" fill="#006241"/><path d="M 529.71 605.21 A 73.08 73.08 0 0 1  602.7900000000001 678.2900000000001 L 529.71 605.21 A 73.08 73.08 0 0 0 602.7900000000001 678.2900000000001" fill="#00A181"/><path d="M 756.21 605.21 A 73.08 73.08 0 0 1  829.2900000000001 678.2900000000001 L 756.21 605.21 A 73.08 73.08 0 0 0 829.2900000000001 678.2900000000001" fill="#006241"/><rect x="831.708" y="605.208" width="73.084" height="73.084" fill="#ffffff"/><path d="M 868.25 641.75 A 36.54 36.54 0 0 1  904.79 605.21 L 868.25 641.75 A 36.54 36.54 0 0 0 904.79 605.21" fill="#006241"/><path d="M 831.71 641.75 A 36.54 36.54 0 0 1  868.25 678.29 L 831.71 641.75 A 36.54 36.54 0 0 0 868.25 678.29" fill="#006241"/><path d="M 868.25 641.75 A 36.54 36.54 0 0 1  904.79 678.29 L 868.25 641.75 A 36.54 36.54 0 0 0 904.79 678.29" fill="#00A181"/><rect x="907.208" y="605.208" width="73.084" height="73.084" fill="#ffffff"/><path d="M 907.21 641.75 A 36.54 36.54 0 0 1  943.75 605.21 L 907.21 641.75 A 36.54 36.54 0 0 0 943.75 605.21" fill="#00A181"/><path d="M 907.21 641.75 A 36.54 36.54 0 0 1  943.75 678.29 L 907.21 641.75 A 36.54 36.54 0 0 0 943.75 678.29" fill="#00A181"/><path d="M 1058.21 605.21 A 73.08 73.08 0 0 1  1131.29 678.2900000000001 L 1058.21 605.21 A 73.08 73.08 0 0 0 1131.29 678.2900000000001" fill="#006241"/><path d="M 1209.21 605.21 A 73.08 73.08 0 0 1  1282.29 678.2900000000001 L 1209.21 605.21 A 73.08 73.08 0 0 0 1282.29 678.2900000000001" fill="#006241"/><rect x="1284.708" y="605.208" width="73.084" height="73.084" fill="#ffffff"/><path d="M 1284.71 605.21 A 36.54 36.54 0 0 1  1321.25 641.75 L 1284.71 605.21 A 36.54 36.54 0 0 0 1321.25 641.75" fill="#00A181"/><path d="M 1321.25 641.75 A 36.54 36.54 0 0 1  1357.79 605.21 L 1321.25 641.75 A 36.54 36.54 0 0 0 1357.79 605.21" fill="#00A181"/><path d="M 1360.21 605.21 A 73.08 73.08 0 0 1  1433.29 678.2900000000001 L 1360.21 605.21 A 73.08 73.08 0 0 0 1433.29 678.2900000000001" fill="#006241"/><path d="M 1435.71 678.2900000000001 A 73.08 73.08 0 0 1  1508.79 605.21 L 1435.71 678.2900000000001 A 73.08 73.08 0 0 0 1508.79 605.21" fill="#00A181"/><path d="M 226.5 755 A 75.5 75.5 0 0 1  302 679.5 L 226.5 755 A 75.5 75.5 0 0 0 302 679.5" fill="#006241"/><path d="M 377.5 679.5 A 75.5 75.5 0 0 1  453 755 L 377.5 679.5 A 75.5 75.5 0 0 0 453 755" fill="#00A181"/><rect x="453" y="679.5" width="75.5" height="75.5" fill="#ffffff"/><path d="M 490.75 755 A 37.75 37.75 0 0 1  528.5 717.25 L 490.75 755 A 37.75 37.75 0 0 0 528.5 717.25" fill="#006241"/><rect x="1132.5" y="679.5" width="75.5" height="75.5" fill="#ffffff"/><path d="M 1359 679.5 A 75.5 75.5 0 0 1  1434.5 755 L 1359 679.5 A 75.5 75.5 0 0 0 1434.5 755" fill="#00A181"/></g></svg>