<?xml version="1.0" standalone="no"?><svg xmlns:xlink="http://www.w3.org/1999/xlink" xmlns="http://www.w3.org/2000/svg" viewBox="0 0 1000 470.5865499631123" preserveAspectRatio="xMaxYMax slice"><g transform="scale(0.7162656772650111)"><rect x="0" y="0" width="1478.25" height="657" fill="#ffffff"/><path d="M 821.25 82.13 A 82.13 82.13 0 0 1  903.38 0 L 821.25 82.13 A 82.13 82.13 0 0 0 903.38 0" fill="#f56613"/><path d="M 903.38 82.13 A 82.13 82.13 0 0 1  985.51 0 L 903.38 82.13 A 82.13 82.13 0 0 0 985.51 0" fill="#f56613"/><rect x="1067.625" y="0" width="82.125" height="82.125" fill="#ffffff"/><path d="M 1108.69 41.06 A 41.06 41.06 0 0 1  1149.75 0 L 1108.69 41.06 A 41.06 41.06 0 0 0 1149.75 0" fill="#017143"/><path d="M 1108.69 41.06 A 41.06 41.06 0 0 1  1149.75 82.12 L 1108.69 41.06 A 41.06 41.06 0 0 0 1149.75 82.12" fill="#017143"/><rect x="82.125" y="82.125" width="82.125" height="82.125" fill="#ffffff"/><path d="M 82.13 123.19 A 41.06 41.06 0 0 1  123.19 82.13 L 82.13 123.19 A 41.06 41.06 0 0 0 123.19 82.13" fill="#017143"/><rect x="739.125" y="82.125" width="82.125" height="82.125" fill="#ffffff"/><path d="M 739.13 123.19 A 41.06 41.06 0 0 1  780.19 164.25 L 739.13 123.19 A 41.06 41.06 0 0 0 780.19 164.25" fill="#f56613"/><path d="M 985.5 82.13 A 82.13 82.13 0 0 1  1067.63 164.26 L 985.5 82.13 A 82.13 82.13 0 0 0 1067.63 164.26" fill="#017143"/><rect x="1067.625" y="82.125" width="82.125" height="82.125" fill="#ffffff"/><path d="M 1108.69 123.19 A 41.06 41.06 0 0 1  1149.75 82.13 L 1108.69 123.19 A 41.06 41.06 0 0 0 1149.75 82.13" fill="#f56613"/><path d="M 1067.63 123.19 A 41.06 41.06 0 0 1  1108.69 164.25 L 1067.63 123.19 A 41.06 41.06 0 0 0 1108.69 164.25" fill="#f56613"/><path d="M 1108.69 164.25 A 41.06 41.06 0 0 1  1149.75 123.19 L 1108.69 164.25 A 41.06 41.06 0 0 0 1149.75 123.19" fill="#f56613"/><path d="M 82.13 246.38 A 82.13 82.13 0 0 1  164.26 164.25 L 82.13 246.38 A 82.13 82.13 0 0 0 164.26 164.25" fill="#017143"/><rect x="410.625" y="164.25" width="82.125" height="82.125" fill="#ffffff"/><path d="M 410.63 164.25 A 41.06 41.06 0 0 1  451.69 205.31 L 410.63 164.25 A 41.06 41.06 0 0 0 451.69 205.31" fill="#017143"/><rect x="739.125" y="164.25" width="82.125" height="82.125" fill="#ffffff"/><path d="M 780.19 164.25 A 41.06 41.06 0 0 1  821.25 205.31 L 780.19 164.25 A 41.06 41.06 0 0 0 821.25 205.31" fill="#f56613"/><rect x="821.25" y="164.25" width="82.125" height="82.125" fill="#ffffff"/><path d="M 821.25 205.31 A 41.06 41.06 0 0 1  862.31 164.25 L 821.25 205.31 A 41.06 41.06 0 0 0 862.31 164.25" fill="#017143"/><path d="M 903.38 246.38 A 82.13 82.13 0 0 1  985.51 164.25 L 903.38 246.38 A 82.13 82.13 0 0 0 985.51 164.25" fill="#f56613"/><path d="M 574.88 328.51 A 82.13 82.13 0 0 1  657.01 246.38 L 574.88 328.51 A 82.13 82.13 0 0 0 657.01 246.38" fill="#017143"/><rect x="1314" y="246.375" width="82.125" height="82.125" fill="#ffffff"/><path d="M 1314 287.44 A 41.06 41.06 0 0 1  1355.06 246.38 L 1314 287.44 A 41.06 41.06 0 0 0 1355.06 246.38" fill="#f56613"/><path d="M 1355.06 246.38 A 41.06 41.06 0 0 1  1396.12 287.44 L 1355.06 246.38 A 41.06 41.06 0 0 0 1396.12 287.44" fill="#017143"/><path d="M 1314 287.44 A 41.06 41.06 0 0 1  1355.06 328.5 L 1314 287.44 A 41.06 41.06 0 0 0 1355.06 328.5" fill="#017143"/><rect x="1396.125" y="246.375" width="82.125" height="82.125" fill="#ffffff"/><path d="M 1437.19 287.44 A 41.06 41.06 0 0 1  1478.25 246.38 L 1437.19 287.44 A 41.06 41.06 0 0 0 1478.25 246.38" fill="#f56613"/><path d="M 1396.13 328.5 A 41.06 41.06 0 0 1  1437.19 287.44 L 1396.13 328.5 A 41.06 41.06 0 0 0 1437.19 287.44" fill="#f56613"/><path d="M 410.63 328.5 A 82.13 82.13 0 0 1  492.76 410.63 L 410.63 328.5 A 82.13 82.13 0 0 0 492.76 410.63" fill="#f56613"/><rect x="492.75" y="328.5" width="82.125" height="82.125" fill="#ffffff"/><path d="M 1231.88 410.63 A 82.13 82.13 0 0 1  1314.0100000000002 328.5 L 1231.88 410.63 A 82.13 82.13 0 0 0 1314.0100000000002 328.5" fill="#017143"/><rect x="0" y="410.625" width="82.125" height="82.125" fill="#ffffff"/><rect x="657" y="410.625" width="82.125" height="82.125" fill="#ffffff"/><path d="M 698.06 451.69 A 41.06 41.06 0 0 1  739.1199999999999 410.63 L 698.06 451.69 A 41.06 41.06 0 0 0 739.1199999999999 410.63" fill="#f56613"/><path d="M 698.06 451.69 A 41.06 41.06 0 0 1  739.1199999999999 492.75 L 698.06 451.69 A 41.06 41.06 0 0 0 739.1199999999999 492.75" fill="#f56613"/><path d="M 903.38 410.63 A 82.13 82.13 0 0 1  985.51 492.76 L 903.38 410.63 A 82.13 82.13 0 0 0 985.51 492.76" fill="#f56613"/><rect x="985.5" y="410.625" width="82.125" height="82.125" fill="#ffffff"/><path d="M 1026.56 451.69 A 41.06 41.06 0 0 1  1067.62 492.75 L 1026.56 451.69 A 41.06 41.06 0 0 0 1067.62 492.75" fill="#f56613"/><path d="M 1231.88 492.76 A 82.13 82.13 0 0 1  1314.0100000000002 410.63 L 1231.88 492.76 A 82.13 82.13 0 0 0 1314.0100000000002 410.63" fill="#f56613"/><path d="M 1314 410.63 A 82.13 82.13 0 0 1  1396.13 492.76 L 1314 410.63 A 82.13 82.13 0 0 0 1396.13 492.76" fill="#f56613"/><rect x="164.25" y="492.75" width="82.125" height="82.125" fill="#ffffff"/><path d="M 164.25 574.8699999999999 A 41.06 41.06 0 0 1  205.31 533.81 L 164.25 574.8699999999999 A 41.06 41.06 0 0 0 205.31 533.81" fill="#f56613"/><path d="M 205.31 574.8699999999999 A 41.06 41.06 0 0 1  246.37 533.81 L 205.31 574.8699999999999 A 41.06 41.06 0 0 0 246.37 533.81" fill="#f56613"/><path d="M 328.5 492.75 A 82.13 82.13 0 0 1  410.63 574.88 L 328.5 492.75 A 82.13 82.13 0 0 0 410.63 574.88" fill="#017143"/><rect x="492.75" y="492.75" width="82.125" height="82.125" fill="#ffffff"/><path d="M 492.75 533.81 A 41.06 41.06 0 0 1  533.81 492.75 L 492.75 533.81 A 41.06 41.06 0 0 0 533.81 492.75" fill="#f56613"/><path d="M 985.5 574.88 A 82.13 82.13 0 0 1  1067.63 492.75 L 985.5 574.88 A 82.13 82.13 0 0 0 1067.63 492.75" fill="#017143"/><rect x="1314" y="492.75" width="82.125" height="82.125" fill="#ffffff"/><path d="M 1355.06 533.81 A 41.06 41.06 0 0 1  1396.12 492.75 L 1355.06 533.81 A 41.06 41.06 0 0 0 1396.12 492.75" fill="#017143"/><path d="M 1314 574.8699999999999 A 41.06 41.06 0 0 1  1355.06 533.81 L 1314 574.8699999999999 A 41.06 41.06 0 0 0 1355.06 533.81" fill="#017143"/><path d="M 246.38 657.01 A 82.13 82.13 0 0 1  328.51 574.88 L 246.38 657.01 A 82.13 82.13 0 0 0 328.51 574.88" fill="#f56613"/><rect x="492.75" y="574.875" width="82.125" height="82.125" fill="#ffffff"/><path d="M 492.75 615.94 A 41.06 41.06 0 0 1  533.81 574.88 L 492.75 615.94 A 41.06 41.06 0 0 0 533.81 574.88" fill="#f56613"/><path d="M 533.81 615.94 A 41.06 41.06 0 0 1  574.8699999999999 574.88 L 533.81 615.94 A 41.06 41.06 0 0 0 574.8699999999999 574.88" fill="#f56613"/><path d="M 533.81 615.94 A 41.06 41.06 0 0 1  574.8699999999999 657 L 533.81 615.94 A 41.06 41.06 0 0 0 574.8699999999999 657" fill="#017143"/><path d="M 574.88 574.88 A 82.13 82.13 0 0 1  657.01 657.01 L 574.88 574.88 A 82.13 82.13 0 0 0 657.01 657.01" fill="#017143"/><rect x="821.25" y="574.875" width="82.125" height="82.125" fill="#ffffff"/><path d="M 1149.75 574.88 A 82.13 82.13 0 0 1  1231.88 657.01 L 1149.75 574.88 A 82.13 82.13 0 0 0 1231.88 657.01" fill="#017143"/><path d="M 1314 574.88 A 82.13 82.13 0 0 1  1396.13 657.01 L 1314 574.88 A 82.13 82.13 0 0 0 1396.13 657.01" fill="#f56613"/><rect x="1396.125" y="574.875" width="82.125" height="82.125" fill="#ffffff"/><path d="M 1396.13 574.88 A 41.06 41.06 0 0 1  1437.19 615.94 L 1396.13 574.88 A 41.06 41.06 0 0 0 1437.19 615.94" fill="#017143"/><path d="M 1437.19 615.94 A 41.06 41.06 0 0 1  1478.25 657 L 1437.19 615.94 A 41.06 41.06 0 0 0 1478.25 657" fill="#f56613"/></g></svg>