<?xml version="1.0" encoding="utf-8"?>
<!-- Generator: Adobe Illustrator 25.3.1, SVG Export Plug-In . SVG Version: 6.00 Build 0)  -->
<svg version="1.1" id="Capa_1" xmlns="http://www.w3.org/2000/svg" xmlns:xlink="http://www.w3.org/1999/xlink" x="0px" y="0px"
	 viewBox="0 0 1315 876" style="enable-background:new 0 0 1315 876;" xml:space="preserve">
<style type="text/css">
	.st0{fill:#017143;}
	.st1{fill:#FF822E;}
</style>
<g transform="scale(0.6622516556291391)">
	<path class="st0" d="M1207.7,147.4c-8.5-69,40.4-131.8,109.4-140.4L1207.7,147.4c69-8.5,117.9-71.4,109.4-140.4"/>
	<path class="st1" d="M1206.7,846.1c0-69.5,56.3-125.8,125.8-125.8L1206.7,846.1c69.5,0,125.8-56.3,125.8-125.8"/>
	<path class="st0" d="M1036.6,694c69.5,0,125.8,56.3,125.8,125.8l0,0L1036.6,694c0,69.5,56.3,125.8,125.8,125.8c0,0,0,0,0,0"/>
	<path class="st1" d="M187.1,1294.9c-69.2-6.1-120.4-67.1-114.4-136.3L187.1,1294.9c6.1-69.2-45.2-130.3-114.4-136.3"/>
	<path class="st0" d="M114.3,209.4C46.9,192.6,5.8,124.3,22.6,56.9L114.3,209.4C131.1,142,90,73.7,22.6,56.9"/>
</g>
</svg>
